<?xml version="1.0" encoding="UTF-8" standalone="no"?><svg xmlns="http://www.w3.org/2000/svg" xmlns:xlink="http://www.w3.org/1999/xlink" fill="#245ca6" height="497.6" preserveAspectRatio="xMidYMid meet" version="1" viewBox="13.4 7.6 487.0 497.6" width="487" zoomAndPan="magnify"><g id="change1_1"><path clip-rule="evenodd" d="M51.671,358.259c0.8,5.42-2.947,10.451-8.342,11.245c-5.445,0.795-10.441-2.957-11.24-8.378 c-0.799-5.41,2.947-10.451,8.342-11.245C45.876,349.097,50.922,352.843,51.671,358.259L51.671,358.259z M321.593,146.72 c27.592,30.618,48.183,57.206,61.768,81.06c25.763,45.235,19.387,90.834-5.872,124.212l-22.522,13.118 c-6.06,3.529-12.234,5.766-18.615,6.86c2.662-3.538,4.722-7.771,6.047-12.681c5.01-18.569-6.104-36.932-23.946-43.115l-1.155-0.4 l-1.202-0.22c-4.124-0.755-8.223-1.608-12.299-2.544c3.642-4.871,5.779-10.87,5.606-18.095c-0.03-1.243-0.101-2.337-0.214-3.271 c-1.444-11.898-7.881-19.643-16.416-24.796c-7.497-4.527-16.488-6.781-24.731-8.134c-5.945-0.976-12.207-2.628-16.793-5.622 c-3.553-2.32-6.102-5.678-6.34-10.589c-0.258-5.314,2.062-9.6,5.717-12.572c2.863-2.328,6.516-3.945,10.476-4.742 c1.593-0.321,3.233-0.506,4.888-0.549c0.175,0.01,0.352,0.016,0.53,0.016c0.214,0,0.427-0.008,0.637-0.023 c2.189,0.032,4.394,0.313,6.548,0.859c6.621,1.678,12.649,6.042,15.824,13.603c1.902,4.534,7.121,6.669,11.655,4.766 c4.534-1.902,6.669-7.121,4.767-11.656c-5.59-13.313-16.233-21.005-27.932-23.971c-0.858-0.217-1.723-0.408-2.592-0.573v-6.902 c0-4.919-3.988-8.907-8.907-8.907c-4.919,0-8.907,3.988-8.907,8.907v7.035c-6.748,1.361-13.085,4.209-18.19,8.359 c-7.845,6.378-12.819,15.638-12.258,27.185c0.563,11.601,6.352,19.383,14.412,24.645c7.026,4.587,15.655,6.96,23.612,8.266 c6.391,1.049,13.214,2.708,18.399,5.838c4.146,2.503,7.261,6.162,7.927,11.644c0.088,0.731,0.136,1.262,0.144,1.601 c0.103,4.359-1.982,7.68-5.113,10.057c-1.063,0.806-2.242,1.523-3.506,2.152c-23.006-6.767-44.38-15.539-67.099-22.909 c-23.718-7.696-45.821,1.013-66.312,12.884l-13.956,8.086c-4.441-24.348-0.44-51.146,14.752-77.821 c13.586-23.853,34.177-50.442,61.768-81.059c3.462,1.128,7.154,1.74,10.984,1.74h87.433 C314.439,148.461,318.13,147.848,321.593,146.72L321.593,146.72z M223.176,132.461h87.433c10.78,0,19.599-8.82,19.599-19.597 c0-10.78-8.818-19.598-19.599-19.598h-87.433c-10.78,0-19.598,8.818-19.598,19.597C203.577,123.642,212.396,132.461,223.176,132.461 L223.176,132.461z M222.463,77.274l-16.097-16.097c-7.832-7.832-7.832-20.649,0-28.481c6.662-6.662,17.207-7.788,25.135-2.7 c2.944,1.89,6.326,2.191,9.558,0.854c3.231-1.339,5.408-3.942,6.155-7.361c1.974-9.041,10.068-15.864,19.68-15.866 c9.438,0,17.669,6.653,19.681,15.866c0.746,3.419,2.924,6.022,6.155,7.361c3.232,1.339,6.613,1.036,9.556-0.854 c7.787-4.998,18.338-4.097,25.135,2.698v0.002c7.832,7.832,7.832,20.649,0,28.481l-16.097,16.097 c-0.237-0.005-0.475-0.009-0.714-0.009h-87.433C222.938,77.265,222.7,77.27,222.463,77.274L222.463,77.274z M83.612,354.252 l53.372,94.182l20.082-11.59c1.948-1.129,4.247-1.429,6.445-0.844l126.122,27.777c16.685,4.462,32.372,2.258,46.709-6.554 l153.155-95.185c8.343-5.115,10.89-20.133,5.146-29.749c-8.343-13.928-30.423-12.284-59.098,4.406l-72.525,42.24 c-15.087,8.813-31.373,11.665-49.707,8.728c-3.347-0.54-6.644-1.115-9.891-1.739c-0.7-0.05-61.697-15.906-68.69-17.79 c-4.546-1.209-7.244-5.855-5.995-10.365c1.199-4.526,5.845-7.204,10.341-5.995c7.144,1.913,50.406,14.177,66.642,17.335 c8.293,0.529,17.934-1.779,21.232-13.988c2.698-10.011-3.198-20.177-13.738-23.829c-29.624-5.425-58.25-15.761-81.23-24.083 c-8.043-2.903-14.987-5.411-20.982-7.359c-18.884-6.124-36.818,1.914-53.354,11.51L83.612,354.252L83.612,354.252z M135.049,479.558 l-81.63-144.24c-0.799-1.409-2.098-2.419-3.697-2.863c-0.549-0.145-1.098-0.22-1.649-0.22c-1.048,0-2.048,0.265-2.947,0.775 l-27.776,15.711c-2.947,1.664-3.947,5.395-2.299,8.318l81.63,144.239c1.649,2.933,5.396,3.962,8.293,2.309l27.776-15.716 c1.399-0.795,2.398-2.108,2.847-3.682C136.048,482.61,135.848,480.967,135.049,479.558z" fill-rule="evenodd"/></g></svg>