<?xml version="1.0" encoding="UTF-8" standalone="no"?><svg xmlns="http://www.w3.org/2000/svg" xmlns:xlink="http://www.w3.org/1999/xlink" data-name="Layer 2" fill="#245ca6" height="58" preserveAspectRatio="xMidYMid meet" version="1" viewBox="8.0 2.0 48.0 58.0" width="48" zoomAndPan="magnify"><g id="change1_1"><path d="M54.43,21.66h0c-.62,0-2.25,.33-2.29,1.82l.14,12.54c0,.24-.08,.48-.24,.66l-5.72,6.66c-.34,.4-.94,.46-1.36,.15-.42-.31-.53-.9-.24-1.34l1.93-3c.11-.26,.43-1.19-.37-1.75-.78-.55-2.06,.17-2.43,.39l-5.9,7.35,.06,8.19h8.7v-2.75c0-.23,.08-.46,.23-.64l9.07-10.88v-15.95c0-.43-.18-1.45-1.57-1.45Z"/></g><g id="change1_2"><path d="M36.22 55.34H48.379999999999995V60H36.22z"/></g><g id="change1_3"><path d="M17.3,50.58v2.75h8.7l.06-8.19-5.9-7.35c-.36-.23-1.65-.94-2.43-.39-.8,.56-.49,1.48-.37,1.76l1.92,3c.28,.44,.18,1.03-.24,1.34-.42,.31-1.01,.25-1.36-.15l-5.72-6.66c-.16-.18-.24-.42-.24-.66l.14-12.85c-.12-.72-.98-1.43-1.78-1.45-1.4-.08-1.95,1.17-2.08,1.54v15.8l9.07,10.88c.15,.18,.23,.41,.23,.64Z"/></g><g id="change1_4"><path d="M15.62 55.34H27.78V60H15.62z"/></g><g id="change1_5"><path d="M47.74,17.5c0-8.55-7.06-15.5-15.74-15.5s-15.74,6.95-15.74,15.5,7.06,15.5,15.74,15.5,15.74-6.95,15.74-15.5Zm-11.33,5.38c-.6,.79-1.93,1.41-3.42,1.65v1.97c0,.55-.45,1-1,1s-1-.45-1-1v-1.91c-1.35-.11-2.66-.53-3.82-1.28-.46-.3-.6-.92-.3-1.38s.92-.6,1.38-.3c1.4,.9,2.79,1.05,3.7,1.01,1.54-.07,2.65-.67,2.87-.97,.41-.54,.55-1.17,.39-1.74-.2-.68-.81-1.23-1.78-1.59-.24-.09-.52-.18-.81-.28-.3-.1-.63-.2-.96-.32-1.58-.56-3.49-1.46-4.29-3.43-.46-1.12-.28-2.38,.48-3.44,.73-1.03,1.89-1.7,3.15-1.87v-1.91c0-.55,.45-1,1-1s1,.45,1,1v2.04c.94,.22,2.04,.63,2.8,1.16,.45,.32,.56,.94,.24,1.39-.32,.45-.94,.56-1.39,.24-.68-.48-1.98-.89-2.75-.97,0,0-.14-.01-.14-.01-.87-.04-1.77,.38-2.28,1.09-.21,.29-.51,.87-.25,1.52,.5,1.23,1.92,1.88,3.11,2.3,.31,.11,.62,.21,.91,.3,.33,.11,.64,.21,.9,.31,1.56,.58,2.62,1.62,3,2.91,.34,1.18,.08,2.46-.72,3.51Z"/></g></svg>