<?xml version="1.0" encoding="UTF-8" standalone="no"?><svg xmlns="http://www.w3.org/2000/svg" xmlns:xlink="http://www.w3.org/1999/xlink" fill="#5cadfc" height="78.5" preserveAspectRatio="xMidYMid meet" version="1" viewBox="8.2 8.7 79.9 78.5" width="79.9" zoomAndPan="magnify"><g><g id="change1_9"><path d="M16.32,87.25c-0.001-0.066-0.064-6.676,2.72-14.429c1.635-4.554,3.918-8.606,6.786-12.045 c3.586-4.3,8.1-7.646,13.417-9.944c14.99-6.481,24.342-17.579,29.548-25.747c5.641-8.851,7.762-16.26,7.782-16.334l0.145,0.041 c-0.021,0.073-2.148,7.505-7.801,16.374c-3.319,5.208-7.188,9.888-11.497,13.907c-5.387,5.025-11.482,9.028-18.118,11.896 c-11.991,5.186-17.561,14.772-20.121,21.902c-2.774,7.728-2.711,14.31-2.71,14.376L16.32,87.25z" fill="inherit"/></g><g id="change1_2"><path d="M16.017,86.755c-0.005-0.073-0.518-7.403,3.799-15.485c2.938-5.498,7.429-10.992,13.35-16.33 c2.014-1.815,4.215-3.429,6.729-4.931c1.861-1.113,3.551-2.298,5.34-3.552c1.493-1.047,3.038-2.13,4.69-3.166 c7.397-4.638,13.208-8.816,17.524-14.141c3.982-4.911,6.402-10.065,7.73-13.523c1.515-3.943,1.995-6.633,1.937-6.835L77.26,8.75 c0.109,0.38-1.88,10.857-9.694,20.495c-4.33,5.34-10.152,9.527-17.562,14.173c-1.649,1.034-3.192,2.116-4.685,3.162 c-1.791,1.256-3.483,2.441-5.35,3.558c-2.505,1.497-4.698,3.104-6.705,4.913c-5.907,5.327-10.388,10.808-13.316,16.289 c-4.297,8.044-3.787,15.33-3.781,15.403L16.017,86.755z" fill="inherit"/></g><g id="change1_3"><path d="M15.715,86.26c-0.011-0.074-1.032-7.527,4.501-15.534c2.546-3.685,5.921-7.185,9.828-11.236 c1.463-1.518,2.976-3.086,4.557-4.778c1.754-1.878,3.642-3.634,5.942-5.524c0.913-0.75,1.788-1.547,2.634-2.318 c1.919-1.75,3.903-3.559,6.607-5.102c2.158-1.232,4.187-2.318,5.977-3.277c5.151-2.76,9.221-4.939,12.479-8.439 c4.135-4.441,6.493-9.753,7.743-13.427c1.405-4.13,1.811-7.361,1.675-7.831l0.145-0.042c0.276,0.956-1.501,12.861-9.453,21.402 c-3.275,3.518-7.354,5.703-12.519,8.469c-1.788,0.959-3.816,2.045-5.973,3.275c-2.69,1.535-4.668,3.339-6.581,5.082 c-0.847,0.772-1.723,1.571-2.639,2.324c-2.296,1.887-4.18,3.638-5.929,5.511c-1.581,1.693-3.095,3.263-4.558,4.779 c-3.903,4.048-7.274,7.544-9.813,11.218c-5.497,7.956-4.486,15.354-4.476,15.428L15.715,86.26z" fill="inherit"/></g><g id="change1_5"><path d="M15.413,85.765c-0.017-0.075-1.604-7.647,5.204-15.583c1.716-2,3.754-3.874,5.913-5.858 c2.948-2.712,6.291-5.784,9.507-9.841c1.752-2.211,3.439-4.154,5.156-6.114c0.563-0.644,1.098-1.313,1.614-1.96 c1.748-2.189,3.556-4.453,6.836-6.167c3.708-1.938,6.885-3.126,9.687-4.174c3.916-1.465,7.009-2.621,9.701-5.118 c4.261-3.951,6.563-9.43,7.745-13.33c1.336-4.411,1.638-8.092,1.425-8.827l0.145-0.042c0.217,0.751-0.081,4.474-1.426,8.912 c-1.187,3.918-3.501,9.423-7.787,13.397c-2.714,2.517-5.818,3.678-9.75,5.148c-2.798,1.047-5.97,2.232-9.669,4.166 c-3.253,1.699-5.051,3.951-6.789,6.128c-0.518,0.648-1.053,1.319-1.618,1.965c-1.717,1.959-3.401,3.9-5.152,6.108 c-3.223,4.066-6.57,7.144-9.522,9.858c-2.155,1.981-4.191,3.853-5.901,5.846c-6.76,7.879-5.188,15.378-5.171,15.453L15.413,85.765 z" fill="inherit"/></g><g id="change1_11"><path d="M15.11,85.271c-0.022-0.077-2.228-7.784,5.908-15.631c1.536-1.482,3.283-2.815,5.132-4.228 c3.66-2.794,7.808-5.96,11.324-11.158c1.7-2.512,3.094-4.613,4.371-6.704c0.374-0.611,0.721-1.238,1.057-1.844 c1.479-2.674,2.877-5.199,6.603-6.989c4.61-2.216,8.352-2.975,11.652-3.645c3.453-0.7,6.181-1.254,8.667-3.224 c8.114-6.426,9.51-21.016,8.919-23.057l0.145-0.042c0.595,2.056-0.806,16.75-8.97,23.216c-2.516,1.992-5.258,2.549-8.731,3.254 c-3.292,0.667-7.022,1.424-11.617,3.632c-3.683,1.77-5.068,4.274-6.536,6.927c-0.336,0.607-0.684,1.236-1.059,1.85 c-1.279,2.094-2.675,4.196-4.375,6.71c-3.531,5.218-7.689,8.393-11.357,11.193c-1.846,1.409-3.59,2.74-5.12,4.217 c-8.065,7.779-5.891,15.403-5.867,15.479L15.11,85.271z" fill="inherit"/></g><g id="change1_10"><path d="M14.81,84.775c-0.007-0.02-0.747-2.004-0.299-4.915c0.413-2.682,1.947-6.727,6.909-10.762 c1.526-1.243,3.235-2.312,5.045-3.443c4.195-2.624,8.951-5.599,12.448-11.63c1.452-2.505,2.625-4.891,3.586-7.293 c0.245-0.613,0.464-1.234,0.677-1.836c1.066-3.023,2.075-5.879,6.188-7.705c5.283-2.346,9.405-2.494,13.041-2.625 c3.11-0.111,5.797-0.208,8.211-1.817c4.439-2.959,6.64-8.781,7.704-13.146c1.247-5.112,1.291-9.688,0.966-10.812l0.145-0.042 c0.696,2.407-0.306,18.508-8.73,24.124c-2.45,1.633-5.156,1.729-8.289,1.843c-3.623,0.13-7.729,0.277-12.986,2.611 c-4.055,1.801-5.052,4.627-6.107,7.618c-0.213,0.603-0.434,1.226-0.68,1.842c-0.963,2.409-2.139,4.801-3.596,7.313 c-3.516,6.063-8.287,9.048-12.497,11.682c-1.806,1.129-3.511,2.196-5.031,3.433c-4.92,4.002-6.442,8.006-6.853,10.659 c-0.445,2.874,0.281,4.829,0.289,4.848L14.81,84.775z" fill="inherit"/></g><g id="change1_14"><path d="M14.508,84.28c-0.009-0.021-0.924-2.055-0.475-4.997c0.413-2.709,2.101-6.77,7.787-10.726 c1.587-1.104,3.354-2.002,5.225-2.953c4.664-2.373,9.952-5.063,13.306-11.808c1.259-2.531,2.176-5.108,2.804-7.881 c0.144-0.633,0.263-1.269,0.377-1.884c0.627-3.355,1.219-6.524,5.692-8.365c5.846-2.406,10.455-1.839,14.16-1.384 c3.014,0.371,5.616,0.69,8.026-0.635c4.496-2.472,6.647-8.469,7.661-13.063c1.161-5.266,1.185-10.315,0.757-11.793l0.145-0.042 c0.432,1.493,0.411,6.578-0.755,11.867c-1.021,4.625-3.19,10.663-7.735,13.163c-2.452,1.348-5.076,1.026-8.117,0.651 c-3.689-0.453-8.275-1.018-14.085,1.374c-4.398,1.81-4.982,4.94-5.602,8.254c-0.115,0.616-0.233,1.254-0.378,1.89 c-0.631,2.784-1.552,5.373-2.815,7.914c-3.377,6.79-8.688,9.491-13.373,11.874c-1.865,0.949-3.628,1.846-5.206,2.943 c-5.644,3.926-7.315,7.945-7.725,10.625c-0.442,2.898,0.453,4.892,0.463,4.912L14.508,84.28z" fill="inherit"/></g><g id="change1_15"><path d="M14.207,83.784c-0.011-0.021-1.105-2.113-0.658-5.091c0.412-2.741,2.251-6.818,8.672-10.676 c1.681-1.009,3.553-1.775,5.533-2.588c5.351-2.192,10.883-4.459,14.036-11.862c1.105-2.596,1.767-5.365,2.021-8.469 c0.055-0.659,0.086-1.318,0.115-1.956c0.181-3.839,0.336-7.155,5.156-9c6.346-2.431,11.217-1.099,15.129-0.03 c2.978,0.813,5.549,1.516,7.992,0.437c4.533-2,6.639-8.171,7.605-12.995c1.122-5.592,1.044-11.096,0.562-12.762l0.145-0.042 c0.486,1.681,0.567,7.218-0.559,12.833c-0.975,4.859-3.1,11.077-7.692,13.104c-2.495,1.099-5.091,0.39-8.093-0.43 c-3.891-1.063-8.732-2.386-15.036,0.025c-4.728,1.811-4.881,5.081-5.059,8.867c-0.03,0.639-0.062,1.299-0.115,1.962 c-0.257,3.119-0.922,5.904-2.033,8.515c-3.179,7.46-8.99,9.842-14.118,11.942c-1.976,0.81-3.842,1.574-5.512,2.578 c-6.366,3.824-8.19,7.854-8.601,10.56c-0.442,2.931,0.631,4.987,0.642,5.008L14.207,83.784z" fill="inherit"/></g><g id="change1_12"><path d="M13.906,83.287c-0.016-0.026-1.611-2.731-0.603-6.331c1.004-3.583,4.139-6.771,9.317-9.477 c1.795-0.938,3.797-1.59,5.916-2.28c5.786-1.884,11.77-3.833,14.692-11.861c0.975-2.677,1.381-5.64,1.242-9.058 c-0.027-0.689-0.077-1.374-0.125-2.036c-0.303-4.177-0.563-7.784,4.595-9.626c6.809-2.432,11.908-0.317,16.005,1.383 c2.975,1.232,5.543,2.298,8.052,1.449c8.517-2.887,9.004-22.9,7.916-26.658l0.145-0.042c1.095,3.782,0.586,23.928-8.012,26.842 c-2.562,0.87-5.154-0.207-8.158-1.453c-4.074-1.688-9.146-3.791-15.896-1.379c-5.052,1.804-4.794,5.357-4.496,9.474 c0.048,0.663,0.098,1.35,0.126,2.041c0.139,3.438-0.271,6.419-1.252,9.115c-2.947,8.097-8.966,10.057-14.786,11.952 c-2.113,0.688-4.109,1.339-5.893,2.271c-5.14,2.685-8.249,5.841-9.243,9.381c-0.992,3.536,0.57,6.19,0.587,6.217L13.906,83.287z" fill="inherit"/></g><g id="change1_7"><path d="M13.604,82.79c-0.019-0.027-1.826-2.799-0.798-6.411c1.035-3.641,4.472-6.815,10.214-9.438 c1.923-0.879,4.072-1.424,6.349-2c6.208-1.574,12.627-3.201,15.3-11.832c0.855-2.765,1.007-5.921,0.462-9.648 c-0.104-0.718-0.229-1.43-0.351-2.117c-0.791-4.516-1.475-8.415,4.021-10.249c7.248-2.419,12.558,0.49,16.825,2.827 c2.996,1.641,5.583,3.058,8.167,2.431c1.787-0.434,3.333-1.757,4.596-3.935c1.725-2.973,2.93-7.636,3.393-13.128 c0.402-4.766,0.141-8.888-0.325-10.497l0.145-0.042c1.026,3.546,0.912,16.856-3.082,23.742c-1.284,2.214-2.862,3.562-4.69,4.005 c-2.637,0.641-5.251-0.79-8.273-2.445c-4.465-2.444-9.523-5.214-16.707-2.815c-5.371,1.793-4.698,5.634-3.919,10.08 c0.12,0.689,0.245,1.402,0.351,2.122c0.548,3.75,0.396,6.928-0.468,9.714c-2.697,8.712-9.158,10.35-15.406,11.934 c-2.269,0.575-4.412,1.118-6.322,1.991c-5.7,2.604-9.109,5.747-10.133,9.343c-1.009,3.546,0.761,6.261,0.779,6.287L13.604,82.79z" fill="inherit"/></g><g id="change1_1"><path d="M13.303,82.293c-0.021-0.028-2.041-2.88-0.99-6.515c1.069-3.695,4.806-6.85,11.107-9.377 c2.061-0.825,4.37-1.267,6.814-1.733c6.62-1.264,13.465-2.57,15.875-11.79c0.757-2.894,0.655-6.147-0.317-10.239 c-0.178-0.748-0.374-1.488-0.563-2.204c-1.285-4.853-2.395-9.043,3.431-10.865c7.667-2.397,13.182,1.31,17.611,4.288 c3.03,2.038,5.646,3.801,8.317,3.396c1.646-0.248,3.087-1.319,4.28-3.183c4.369-6.821,4.175-21.668,3.13-25.278l0.145-0.042 c1.05,3.628,1.243,18.545-3.148,25.4c-1.218,1.902-2.693,2.996-4.385,3.251c-2.723,0.416-5.366-1.363-8.423-3.419 c-4.631-3.115-9.879-6.646-17.482-4.27c-5.688,1.779-4.596,5.905-3.33,10.683c0.189,0.717,0.386,1.458,0.564,2.208 c0.979,4.117,1.079,7.394,0.315,10.313c-2.434,9.312-9.325,10.627-15.991,11.899c-2.438,0.466-4.74,0.905-6.786,1.726 c-6.257,2.509-9.965,5.631-11.02,9.278c-1.031,3.565,0.947,6.357,0.967,6.386L13.303,82.293z" fill="inherit"/></g><g id="change1_4"><path d="M13.001,81.795c-0.022-0.029-2.256-2.972-1.178-6.637c1.104-3.748,5.14-6.876,11.996-9.295 c2.205-0.777,4.683-1.115,7.307-1.473c7.023-0.957,14.285-1.947,16.423-11.742c0.858-3.931-0.215-8.065-1.096-10.833 c-0.247-0.776-0.511-1.544-0.767-2.286c-1.203-3.505-2.243-6.531-1.089-8.766c0.644-1.243,1.926-2.133,3.921-2.718 c7.839-2.305,13.482,2.246,18.017,5.901c3.231,2.604,6.02,4.854,8.835,4.21c1.653-0.377,3.094-1.591,4.282-3.607 c4.172-7.082,4.057-21.725,2.889-25.758l0.145-0.042c1.172,4.051,1.288,18.76-2.904,25.876c-1.21,2.054-2.683,3.291-4.378,3.678 c-2.884,0.659-5.701-1.611-8.962-4.24c-4.508-3.633-10.119-8.152-17.88-5.874c-1.954,0.573-3.207,1.438-3.83,2.644 c-1.126,2.177-0.096,5.175,1.098,8.647c0.255,0.743,0.52,1.512,0.767,2.289c0.887,2.785,1.966,6.945,1.1,10.911 c-2.16,9.897-9.475,10.895-16.549,11.858c-2.616,0.356-5.087,0.693-7.276,1.466c-6.808,2.401-10.813,5.495-11.902,9.193 c-1.058,3.591,1.13,6.476,1.152,6.505L13.001,81.795z" fill="inherit"/></g><g id="change1_13"><path d="M12.7,81.296c-0.025-0.03-2.472-3.07-1.363-6.77c1.14-3.803,5.474-6.898,12.882-9.201 c2.355-0.731,5.009-0.966,7.818-1.214c7.42-0.654,15.093-1.332,16.951-11.693c0.72-4.012-0.624-8.214-1.875-11.426 c-0.313-0.807-0.643-1.604-0.962-2.375c-1.558-3.772-2.904-7.03-1.759-9.372c0.618-1.264,1.922-2.154,3.985-2.724 c8.266-2.283,13.847,2.816,18.768,7.315c3.263,2.981,6.082,5.565,9.02,5.222c1.551-0.177,2.91-1.128,4.042-2.828 c4.357-6.542,4.269-22.632,2.877-27.438l0.145-0.042c1.397,4.827,1.483,20.988-2.896,27.564c-1.157,1.737-2.554,2.711-4.149,2.894 c-3.005,0.34-5.849-2.253-9.139-5.261c-4.893-4.473-10.438-9.542-18.627-7.281c-2.02,0.558-3.292,1.423-3.89,2.646 c-1.115,2.281,0.219,5.51,1.763,9.248c0.319,0.771,0.649,1.57,0.964,2.378c1.258,3.23,2.608,7.458,1.883,11.507 c-1.88,10.475-9.61,11.157-17.086,11.816c-2.802,0.247-5.447,0.48-7.787,1.208c-7.356,2.287-11.657,5.348-12.782,9.099 c-1.087,3.623,1.31,6.604,1.334,6.634L12.7,81.296z" fill="inherit"/></g><g id="change1_16"><path d="M12.397,80.798c-0.027-0.031-2.685-3.176-1.544-6.915c1.177-3.855,5.808-6.915,13.764-9.095 c2.511-0.688,5.346-0.817,8.348-0.955c7.811-0.356,15.888-0.726,17.465-11.646c0.598-4.135-1.105-8.596-2.655-12.021 c-0.378-0.833-0.77-1.659-1.149-2.457c-1.922-4.044-3.581-7.537-2.439-9.986c0.598-1.281,1.923-2.173,4.051-2.727 c8.906-2.317,14.753,3.56,19.91,8.741c3.166,3.183,5.901,5.931,8.823,6.224c1.388,0.146,2.638-0.427,3.689-1.69 c4.75-5.702,4.536-24.058,2.967-29.479l0.145-0.042c1.575,5.443,1.782,23.881-2.996,29.617c-1.086,1.303-2.363,1.888-3.82,1.744 c-2.975-0.299-5.728-3.064-8.914-6.267c-5.129-5.154-10.937-10.995-19.767-8.702c-2.081,0.541-3.374,1.406-3.951,2.645 c-1.113,2.385,0.533,5.849,2.438,9.858c0.38,0.799,0.772,1.625,1.15,2.46c1.559,3.443,3.271,7.93,2.667,12.104 c-1.595,11.043-9.734,11.415-17.606,11.774c-2.993,0.137-5.82,0.266-8.315,0.949c-7.901,2.165-12.497,5.19-13.659,8.992 c-1.117,3.659,1.487,6.744,1.514,6.775L12.397,80.798z" fill="inherit"/></g><g id="change1_17"><path d="M12.096,80.299c-0.029-0.032-2.896-3.285-1.723-7.064c1.215-3.91,6.141-6.933,14.643-8.984 c2.671-0.645,5.833-0.669,8.892-0.692c8.195-0.064,16.67-0.13,17.963-11.601c0.478-4.238-1.469-8.755-3.435-12.614 c-0.439-0.862-0.893-1.715-1.33-2.541c-2.293-4.319-4.272-8.049-3.128-10.604c0.581-1.297,1.928-2.188,4.118-2.725 c9.32-2.286,15.357,4.376,20.685,10.253c3.215,3.547,5.99,6.609,8.982,7.14c1.361,0.239,2.568-0.214,3.594-1.354 c2.892-3.217,3.662-10.958,3.864-15.287c0.312-6.671-0.293-12.813-1.052-15.433l0.145-0.042c0.762,2.632,1.369,8.795,1.058,15.481 c-0.203,4.349-0.98,12.129-3.903,15.381c-1.062,1.181-2.321,1.654-3.73,1.401c-3.043-0.539-5.835-3.619-9.068-7.186 c-5.299-5.847-11.303-12.475-20.538-10.209c-2.142,0.525-3.456,1.389-4.017,2.641c-1.114,2.487,0.85,6.188,3.123,10.472 c0.438,0.826,0.892,1.681,1.331,2.543c1.977,3.88,3.933,8.422,3.45,12.699c-1.307,11.603-9.85,11.669-18.11,11.733 c-3.05,0.023-6.204,0.049-8.857,0.688c-8.445,2.038-13.336,5.026-14.534,8.882c-1.149,3.697,1.662,6.89,1.69,6.921L12.096,80.299z" fill="inherit"/></g><g id="change1_6"><path d="M11.793,79.8c-0.031-0.033-3.107-3.398-1.898-7.221c1.253-3.964,6.475-6.947,15.52-8.866 c2.832-0.602,6.195-0.514,9.447-0.429c8.579,0.226,17.445,0.458,18.449-11.559c0.365-4.365-1.926-9.127-4.215-13.209 c-0.498-0.887-1.009-1.767-1.502-2.617c-2.673-4.601-4.98-8.574-3.828-11.231c0.568-1.311,1.938-2.2,4.188-2.719 c9.735-2.259,15.969,5.199,21.471,11.782c3.261,3.902,6.077,7.271,9.132,8.039c1.337,0.336,2.529-0.022,3.536-1.066 c4.979-5.158,4.399-25.759,2.618-31.912l0.145-0.042c0.952,3.291,1.475,10.165,1.24,16.344 c-0.171,4.539-0.905,12.617-3.895,15.715c-1.047,1.085-2.285,1.458-3.682,1.107c-3.102-0.779-5.932-4.166-9.21-8.089 c-5.475-6.55-11.679-13.976-21.322-11.731c-2.2,0.507-3.536,1.368-4.084,2.632c-1.122,2.588,1.168,6.531,3.82,11.097 c0.494,0.851,1.005,1.73,1.503,2.619c2.3,4.102,4.602,8.889,4.234,13.295c-1.016,12.157-9.956,11.926-18.604,11.696 c-3.243-0.084-6.596-0.173-9.412,0.425c-8.987,1.907-14.172,4.855-15.408,8.764c-1.183,3.738,1.835,7.042,1.865,7.074L11.793,79.8 z" fill="inherit"/></g><g id="change1_8"><path d="M11.491,79.301c-0.034-0.035-3.315-3.514-2.072-7.381c1.291-4.019,6.808-6.961,16.394-8.745 c3-0.559,6.566-0.355,10.013-0.16c4.478,0.256,9.104,0.518,12.612-0.86c3.927-1.542,5.992-5.028,6.313-10.66 c0.307-5.365-3.4-11.286-6.672-16.51c-3.051-4.872-5.687-9.08-4.527-11.838c0.558-1.325,1.951-2.216,4.261-2.721 c10.147-2.222,16.586,6.043,22.266,13.336c3.307,4.245,6.162,7.912,9.271,8.914c1.333,0.429,2.517,0.156,3.515-0.813 c5.098-4.947,4.294-26.495,2.39-33.071l0.145-0.042c1.91,6.601,2.703,28.239-2.43,33.221c-1.042,1.011-2.272,1.295-3.666,0.848 c-3.152-1.016-6.021-4.699-9.343-8.965c-5.651-7.257-12.053-15.484-22.116-13.281c-2.258,0.494-3.616,1.355-4.153,2.633 c-1.129,2.686,1.486,6.862,4.516,11.7c3.283,5.242,7.004,11.185,6.695,16.598c-0.726,12.704-10.061,12.173-19.084,11.662 c-3.438-0.195-6.994-0.397-9.978,0.157c-9.528,1.772-15.005,4.681-16.278,8.644c-1.216,3.783,2.005,7.197,2.037,7.231 L11.491,79.301z" fill="inherit"/></g></g></svg>