<?xml version="1.0" encoding="UTF-8" standalone="no"?><svg xmlns="http://www.w3.org/2000/svg" xmlns:xlink="http://www.w3.org/1999/xlink" fill="#efcb96" height="1345.8" preserveAspectRatio="xMidYMid meet" version="1" viewBox="-7.1 -4.0 1439.1 1345.8" width="1439.1" zoomAndPan="magnify"><g><g id="change1_1"><path d="M135.7,13.2C84.5,80.9,40.1,155.7,16.6,237.8C-4.9,313-7.1,393.9,19.3,468.2C43.6,536.4,89.4,599.5,155,632.9 c72.7,37,154,32,231.9,18.2c38-6.7,75.6-15.4,113.6-21.8c4.6-0.8,9.3-1.5,13.9-2.3c2.5-0.4,5-0.8,7.5-1.1c1.1-0.2,2.1-0.3,3.2-0.5 c4-0.6-4.8,0.6-0.8,0.1c9.6-1.1,19.1-2.2,28.7-3c18.6-1.4,37.3-1.7,55.8-0.2c2.4,0.2,12.3-0.3,13.6,1.4c0,0-5.2-0.8-2-0.3 c1,0.2,2.1,0.3,3.1,0.5c2.8,0.4,5.5,0.9,8.3,1.4c9,1.7,17.9,3.9,26.7,6.6c4.4,1.3,8.7,2.8,13.1,4.4c2,0.7,4,1.5,5.9,2.3 c0.8,0.3,5,2.2,1.7,0.7c-3.2-1.5,1,0.5,1.6,0.8c8.3,3.8,16.4,8,24.3,12.6c8.2,4.8,16.1,10.1,23.8,15.7c1.7,1.3,3.4,2.5,5.1,3.8 c-5-3.8,0.9,0.8,2,1.7c3.8,3.1,7.6,6.4,11.3,9.7c14.1,12.6,27.1,26.4,39,41.1c1.4,1.7,2.7,3.3,4,5c0.7,0.9,3,4.1-0.3-0.4 c0.6,0.9,1.3,1.7,1.9,2.6c3,4,5.9,8.1,8.8,12.2c5.4,7.8,10.5,15.7,15.3,23.8c11.3,18.8,21.4,38.4,30.5,58.4 c2.2,4.9,4.4,9.8,6.6,14.8c0.5,1.1,1,2.3,1.5,3.4c-1.9-4.3-0.2-0.4,0.2,0.4c1.1,2.7,2.2,5.4,3.3,8.1c4.2,10.4,8.2,20.9,12.1,31.4 c7.7,20.7,14.8,41.6,21.9,62.5c28.2,83.2,55.9,169.1,107.1,241.6c45.8,64.9,111.7,120.8,191.1,137.8c72.5,15.5,155-4.6,206-60.4 c12.1-13.2,22.5-28.1,29.9-44.4c5.8-12.8,4.1-29.7-9.7-36.9c-11.8-6.2-30.7-4-36.9,9.7c-3.4,7.4-7.3,14.6-11.8,21.4 c-1,1.6-2.1,3.1-3.2,4.6c-2.8,3.9,3.4-4-0.9,1.2c-2.6,3.1-5.2,6.1-8,9.1c-2.8,2.9-5.7,5.7-8.7,8.4c-1.4,1.2-2.8,2.5-4.2,3.7 c-0.7,0.6-1.4,1.2-2.2,1.8c-2.8,2.3-0.3-0.3,1-0.8c-3.3,1.1-7,5.1-10,7c-3.4,2.2-6.9,4.3-10.5,6.3c-3.6,2-7.2,3.9-11,5.6 c-1.7,0.8-3.5,1.6-5.2,2.4c-2.8,1.3,2-0.9,2.1-0.9c-1,0.1-2.6,1-3.5,1.4c-7.7,3-15.7,5.5-23.7,7.4c-4,1-8.1,1.9-12.2,2.6 c-1.9,0.3-3.8,0.6-5.7,1c-3.1,0.6,2.4-0.3,2.4-0.3c-1.3,0.1-2.5,0.3-3.8,0.5c-8.3,0.9-16.6,1.3-24.9,1.2 c-4.1-0.1-8.3-0.3-12.4-0.6c-1.9-0.2-3.8-0.3-5.7-0.5c-0.9-0.1-1.9-0.3-2.8-0.3c1.6,0,5.1,0.8,1.5,0.2c-9.1-1.6-18-3.4-26.8-6 c-4.4-1.3-8.7-2.7-13-4.2c-2-0.7-4-1.4-5.9-2.2c-2.1-0.8-7.5-2.5-2.3-0.8c-8.5-2.6-16.9-7.8-24.6-12.2 c-8.3-4.7-16.4-9.8-24.2-15.3c-1.7-1.2-3.5-2.5-5.2-3.7c-0.8-0.6-5.8-4.3-3.2-2.4c2.5,2-2.4-1.9-3.1-2.5c-2.2-1.8-4.4-3.6-6.6-5.5 c-14.1-12.1-27.2-25.4-39.2-39.6c-2.8-3.3-5.4-6.6-8.1-10c-1.9-2.4,0.8,1,0.9,1.2c-0.6-0.9-1.3-1.7-1.9-2.6 c-1.7-2.3-3.4-4.6-5.1-6.9c-6.1-8.5-11.8-17.1-17.3-26c-11.1-18-21-36.6-29.9-55.7c-2.1-4.4-4.1-8.9-6.1-13.3 c-1.2-2.6-2.3-5.2-3.4-7.8c-0.5-1.1-1-2.2-1.4-3.4c-1.7-3.9,1.5,3.6-0.1-0.3c-4-9.8-8-19.6-11.8-29.6c-7.6-19.8-14.6-39.9-21.4-60 c-28-82.1-54-167-101.7-240.4c-42.8-65.9-103.5-122.9-179.6-147c-74.8-23.7-154.5-10.5-229.6,4.4c-18.6,3.7-37.1,7.5-55.8,11.1 c-9.2,1.8-18.5,3.4-27.8,5c-4.3,0.7-8.5,1.4-12.8,2c-2.5,0.4-5,0.7-7.4,1.1c-3.2,0.5,1.7-0.2,1.9-0.2c-1.3,0.4-2.9,0.4-4.2,0.5 c-18.2,2.2-36.4,3.7-54.7,3.7c-9,0-18-0.3-27-1.1c-2.1-0.2-4.1-0.4-6.2-0.6c-1.1-0.1-8.5-1.1-4.6-0.5c3.8,0.5-2.6-0.4-3.6-0.6 c-2.4-0.4-4.8-0.8-7.1-1.3c-8.9-1.7-17.7-3.9-26.3-6.6c-4.3-1.4-8.7-2.9-12.9-4.5c-0.9-0.4-6.7-2.5-3-1.1c3.5,1.3-2.7-1.2-3.8-1.7 c-7.5-3.4-14.8-7.3-21.8-11.6c-3.5-2.1-6.9-4.4-10.3-6.7c-1.6-1.1-3.1-2.2-4.6-3.3c-0.8-0.6-1.5-1.1-2.3-1.7c-2.8-2-0.1-0.4,1,0.8 c-5.3-5.9-12.7-10.5-18.5-16.1c-5.9-5.7-11.5-11.7-16.9-18c-1.4-1.7-2.9-3.4-4.2-5.1c-0.6-0.8-4.2-5.6-2-2.5 c2.2,3.1-1.3-1.8-1.9-2.6c-1.3-1.8-2.6-3.6-3.9-5.5c-4.7-6.8-9.2-13.9-13.3-21.1c-4.2-7.3-8-14.7-11.5-22.3 c-1-2.1-1.9-4.1-2.8-6.2c-0.4-0.8-0.7-1.9-1.2-2.7c0.1,0.1,1.9,4.8,0.9,2c-1.5-3.9-3.1-7.8-4.6-11.8 c-5.9-16.2-10.4-32.9-13.7-49.9c-0.7-3.8-1.4-7.7-2-11.6c-0.2-1-0.9-7.2-0.5-3.2c0.4,4-0.4-4.1-0.6-5.1 c-0.9-8.4-1.4-16.8-1.6-25.2c-0.2-8.7-0.1-17.5,0.4-26.2c0.3-4.7,0.6-9.4,1.1-14c0.2-2.3,0.5-4.7,0.7-7c0.2-1.5,0.4-3.1,0.5-4.6 c0.4-4.2-0.7,4.4,0,0.2c3.1-20,7.2-39.7,12.9-59.1c2.8-9.7,6-19.3,9.4-28.9c1.6-4.4,3.2-8.8,5-13.1c1-2.5,2-5.1,3.1-7.6 c0.1-0.3,1.6-4,0.4-1.1c-1.2,2.9,0.7-1.7,0.9-2.2c16.3-37.6,36.6-73.4,59.3-107.5c11.1-16.7,22.8-33.1,35-49.1 c8.6-11.3,2.2-30.7-9.7-36.9C158.5-4,144.9,1.1,135.7,13.2L135.7,13.2z"/></g></g><g><g id="change1_2"><path d="M262.1,21.4c-55.3,49-95.9,114-117.5,184.5c-20.1,65.5-24.2,137.7-3,203.4c20,62.2,62.1,118.5,126.1,139.5 c83.1,27.2,165.9-16,240.4-48.2c2.8-1.2-1.1,0.5-1.4,0.6c1.3-0.6,2.7-1.1,4.1-1.7c2-0.8,4.1-1.7,6.1-2.5c4.7-1.9,9.5-3.7,14.3-5.5 c9.6-3.5,19.2-6.7,29.1-9.4c9.3-2.5,18.6-4.6,28.1-6.1c0.9-0.1,2-0.2,2.8-0.4c0,0-5.6,0.7-2.5,0.3c2.2-0.2,4.4-0.5,6.6-0.7 c4.4-0.4,8.7-0.7,13.1-0.9c8.4-0.3,16.8-0.3,25.2,0.3c4,0.2,8,0.6,12,1c0.9,0.1,1.8,0.2,2.8,0.3c3.8,0.4-5.4-0.8-1.6-0.2 c2.1,0.3,4.3,0.6,6.4,1c16.6,2.8,32.9,7.1,48.7,12.8c4.1,1.5,8.2,3.1,12.3,4.7c4.8,1.9-4.2-1.9,0.5,0.2c2.3,1,4.6,2,6.9,3.1 c7.8,3.6,15.4,7.5,22.9,11.6c15.1,8.4,29.7,17.9,43.5,28.3c0.8,0.6,1.5,1.2,2.3,1.7c2.5,1.9,0.4,1.8-0.9-0.7 c0.6,1.3,3.4,2.7,4.6,3.6c3.5,2.8,7,5.7,10.4,8.7c6.6,5.7,13.1,11.6,19.3,17.7c12.7,12.4,24.7,25.5,35.8,39.4 c1.2,1.5,2.4,3,3.6,4.5c1.3,1.7,1.2,3.3-0.7-0.9c0.4,0.8,1.2,1.6,1.7,2.3c2.8,3.7,5.4,7.4,8.1,11.1c5.5,7.8,10.9,15.8,16,23.9 c10.3,16.1,19.8,32.8,28.7,49.7c9.1,17.3,17.5,34.9,25.5,52.7c1.9,4.2,3.8,8.5,5.6,12.7c0.8,2,1.7,3.9,2.5,5.9 c0.6,1.3,1.1,2.6,1.7,3.9c-0.8-2-1.4-3.3-0.2-0.5c3.7,8.9,7.3,17.8,10.9,26.8c28.4,71.4,51.8,145.2,85.1,214.5 c30.8,64.1,75.8,126.4,143.5,154.2c57.7,23.7,129.1,18.1,177.9-22.2c11.5-9.5,21.1-21.5,28.4-34.4c7-12.3,3.3-30.1-9.7-36.9 c-12.8-6.8-29.5-3.4-36.9,9.7c-1.6,2.9-3.4,5.7-5.2,8.4c-0.6,0.9-3.8,5.1-1,1.5c2.9-3.8-1.5,1.7-2.1,2.4c-2,2.2-4,4.3-6.1,6.4 c-1.2,1.2-2.5,2.3-3.8,3.4c-0.9,0.8-5.5,4.4-1.8,1.6c3.8-3-1.2,0.8-2,1.3c-1.2,0.8-2.4,1.6-3.7,2.4c-2.9,1.8-5.9,3.5-8.9,5.1 c-1.3,0.7-2.6,1.3-4,2c-0.7,0.3-1.4,0.6-2,0.9c-2.5,1.3,3.3-1.3,3-1.3c-3.3,1-6.5,2.5-9.8,3.6c-6.5,2.1-13.1,3.7-19.8,4.8 c-1.1,0.2-6.5,1-1.7,0.3c4.8-0.6-0.6,0-1.7,0.2c-3.6,0.4-7.2,0.6-10.8,0.7c-7,0.2-14,0-21-0.6c-1.6-0.1-3.1-0.3-4.7-0.5 c-4.9-0.5,5.9,1,1,0.1c-3.6-0.6-7.2-1.2-10.8-2c-6.9-1.5-13.7-3.5-20.3-5.8c-1.5-0.5-2.9-1.1-4.4-1.6c-5.7-2.1,4.1,1.9,0,0 c-3.1-1.4-6.1-2.8-9.1-4.4c-6.7-3.5-13.1-7.5-19.2-11.8c-1.5-1.1-3.1-2.2-4.6-3.3c-3.9-2.8,4,3.3-1.2-1c-3.2-2.5-6.2-5.2-9.3-7.9 c-6.3-5.6-12.2-11.6-17.8-17.9c-2.7-3-5.4-6.1-8-9.2c-1.2-1.5-2.4-2.9-3.5-4.4c-0.4-0.5-2.4-3.1-0.2-0.2c2.4,3-0.3-0.4-0.7-1 c-10-13.5-19-27.7-27.1-42.4c-8.4-15.1-15.9-30.8-22.9-46.6c-1.6-3.5-3.1-7-4.6-10.6c-1.9-4.5,2,4.8-0.6-1.5 c-0.9-2.1-1.7-4.1-2.6-6.2c-3.5-8.5-6.9-17.1-10.3-25.7c-13.8-35.3-26.7-71-40.3-106.4C1000.2,746,970.5,674.1,927.5,610 c-40.1-59.9-92.4-112.3-155.8-147.5c-63.4-35.2-136.2-51.1-207.9-36.7c-39.6,8-76.6,25.2-113.3,41.4c-4.4,1.9-8.7,3.9-13.1,5.8 c-2,0.9-4,1.8-6.1,2.6c-1.3,0.6-2.7,1.2-4,1.7c2.1-0.9,3.1-1.3,0.4-0.2c-8.8,3.6-17.7,7.1-26.7,10.3c-9.4,3.3-19,6.3-28.6,8.8 c-4.6,1.2-9.3,2.3-14,3.2c-2.2,0.4-4.3,0.9-6.5,1.2c-1.1,0.2-2.2,0.4-3.2,0.5c-1,0.2-5.1,0.1-1.8,0.3c3.6,0.3-0.8,0.1-1.8,0.2 c-1.1,0.1-2.2,0.2-3.3,0.3c-2.2,0.2-4.3,0.4-6.5,0.5c-5,0.3-10.1,0.5-15.2,0.4c-4.7-0.1-9.4-0.3-14-0.8c-0.8-0.1-2.5,0-3.2-0.4 c0.1,0,5,0.8,1.8,0.2c-2.5-0.5-5-0.8-7.5-1.4c-8.1-1.7-15.7-4.4-23.6-7.1c-2.7-0.9,2.9,1.3,2.8,1.2c-0.6-0.4-1.5-0.6-2.2-1 c-1.7-0.8-3.4-1.6-5-2.4c-3.3-1.6-6.5-3.4-9.6-5.3c-2.7-1.6-5.3-3.3-7.9-5.1c-1.5-1-2.9-2.2-4.4-3.2c-2.3-1.6,2.5,1.9,2.4,1.8 c-0.6-0.7-1.7-1.4-2.4-2c-5.4-4.5-10.6-9.4-15.4-14.6c-2.2-2.3-4.2-4.7-6.3-7.1c-1.2-1.4-2.2-3-3.5-4.3c-0.1-0.1,3.4,4.7,1.8,2.3 c-0.6-0.9-1.3-1.7-1.9-2.6c-4.2-5.9-8.1-12-11.7-18.3c-3.5-6.2-6.7-12.5-9.6-19c-0.3-0.8-0.7-1.5-1-2.3c-1.5-3.2,2.1,5.2,0.8,1.9 c-0.6-1.5-1.2-3.1-1.8-4.6c-1.4-3.6-2.7-7.3-4-10.9c-4.7-14-8.2-28.5-10.6-43.1c-0.3-1.7-0.5-3.3-0.8-5c-0.8-5,0.7,5.6,0.1,0.5 c-0.4-3.9-0.9-7.8-1.2-11.6c-0.6-7.4-0.9-14.9-0.9-22.4c0-7.8,0.4-15.6,1-23.3c0.3-4.2,0.7-8.4,1.2-12.6c0.2-1.9,0.7-3.9,0.7-5.8 c-0.1,7.3,0.1-0.4,0.4-2.5c2.6-17,6.5-33.8,11.4-50.3c2.4-8.1,5.1-16.1,8.1-24c1.5-4,3-7.9,4.6-11.8c1.9-4.5-2,4.7,0.7-1.6 c0.9-2.1,1.8-4.2,2.8-6.2c7.2-15.6,15.5-30.8,24.7-45.3c4.7-7.4,9.7-14.6,14.9-21.7c0.7-1,3.4-3.5,3.5-4.7c0,0.1-3.1,4-1.2,1.6 c0.6-0.8,1.2-1.5,1.8-2.3c2.8-3.6,5.7-7.1,8.7-10.5c11-12.8,22.9-24.8,35.6-36c10.6-9.4,10.3-28.7,0-38.2 C289,11,273.4,11.4,262.1,21.4L262.1,21.4z"/></g></g><g><g id="change1_3"><path d="M403,15c-42.4,52.4-75.5,111-97.8,174.7c-11.1,31.7-21.3,65.8-21.9,99.6c-0.6,33.4,11.8,66.8,38.4,88 c24.5,19.5,54.3,28.8,85.4,30.4c32.2,1.7,64.1-7.1,94.3-17.6c30.4-10.6,60.3-22.9,92-28.9c3.5-0.7,7-1.3,10.6-1.8 c0.8-0.1,1.6-0.2,2.4-0.4c3-0.5-3.3,0.4-3.1,0.4c2.2,0,4.4-0.5,6.5-0.8c7.1-0.7,14.2-1.2,21.3-1.5c14.5-0.5,29.1,0,43.5,1.5 c1.6,0.2,3.3,0.3,4.9,0.5c0.8,0.1,1.6,0.2,2.5,0.3c4.6,0.5-1.8-0.2-2.3-0.3c3.5,0.6,7.1,1,10.6,1.6c7.3,1.3,14.6,2.7,21.9,4.4 c14.3,3.4,28.4,7.6,42.2,12.6c3.1,1.1,6.3,2.3,9.4,3.5c1.8,0.7,3.6,1.4,5.4,2.2c0.8,0.3,1.5,0.6,2.3,1c3.3,1.3-5.1-2.2-1.8-0.8 c6.6,3,13.2,5.9,19.7,9.2c13.3,6.6,26.2,13.9,38.7,21.9c6.4,4.1,12.6,8.3,18.8,12.7c2.7,2,5.4,3.9,8.1,5.9c0.7,0.5,1.3,1,2,1.5 c3.6,2.7-1.1-0.8-1.5-1.2c1.5,1.3,3.1,2.4,4.6,3.6c11.6,9.3,22.7,19.3,33.4,29.8c10.9,10.8,21.3,22.1,31.1,33.8 c2.2,2.7,4.4,5.3,6.6,8c1.3,1.6,2.5,3.2,3.8,4.7c0.5,0.7,1.1,1.4,1.6,2c2.2,2.8-3.2-4.2-1-1.4c4.5,6,9,12,13.3,18.2 c17.7,25.2,33.3,51.7,47.1,79.2c7,13.8,13.5,27.8,19.5,42c0.3,0.8,0.7,1.6,1,2.4c1.2,2.8-1.1-2.5-1-2.4c0.6,1.6,1.3,3.2,2,4.9 c1.6,3.8,3.1,7.6,4.6,11.4c2.9,7.3,5.7,14.7,8.4,22.1c10.7,29.3,19.7,59.1,27.8,89.3c8.8,32.9,17,66.1,28.9,98.2 c21.8,58.8,57.3,117.2,114.8,146.8c26.4,13.6,56.2,20.8,85.9,17.6c30.4-3.3,58.7-13.9,81.9-34.2c10.3-9,19.1-20.4,25.2-32.6 c6.4-12.6,3.7-29.9-9.7-36.9c-12.3-6.5-30.1-3.8-36.9,9.7c-1.3,2.5-2.6,4.9-4.1,7.3c-0.9,1.4-1.8,2.7-2.7,4 c-3.1,4.7,3.2-3.7,0.5-0.5c-3.9,4.5-8.1,8.6-12.6,12.6c-3.4,3,4.9-3.5,1.1-0.8c-1.1,0.8-2.2,1.6-3.4,2.4c-2.5,1.7-5,3.2-7.7,4.7 c-2.6,1.5-5.4,2.7-8.1,4.1c-4.2,2,5.6-2.1,1.3-0.5c-1.5,0.6-3.1,1.2-4.6,1.7c-5.8,2-11.7,3.6-17.7,4.7c-1.4,0.3-2.8,0.5-4.2,0.7 c-2.6,0.5,3.8-0.4,3.7-0.5c-0.3-0.2-1.8,0.2-2.1,0.2c-3.3,0.4-6.6,0.6-9.9,0.7c-5.9,0.2-11.8-0.1-17.8-0.7c-4.7-0.5,6.6,1,0.9,0.1 c-1.4-0.2-2.8-0.5-4.2-0.8c-3-0.6-6-1.3-8.9-2.2c-3.1-0.9-6.2-1.9-9.3-3.1c-1-0.4-6.1-2.5-1.9-0.7c4.2,1.8-1.5-0.7-2.6-1.2 c-6.2-2.9-12.2-6.2-17.9-9.9c-2.7-1.7-5.3-3.5-7.8-5.3c-0.6-0.5-1.3-1-1.9-1.4c-2.4-1.7,2.5,2,2.3,1.8c-1.6-1.4-3.3-2.6-4.9-4 c-5.1-4.3-9.9-8.8-14.5-13.6c-4.8-5-9.3-10.3-13.7-15.7c-1.9-2.3,1.9,2.5,1.8,2.3c-0.5-0.7-1-1.3-1.5-1.9c-1-1.3-1.9-2.6-2.9-3.9 c-2.2-3.1-4.3-6.2-6.3-9.3c-7.7-11.9-14.4-24.5-20.2-37.4c-0.7-1.6-1.3-3.9-2.3-5.3c2.7,3.6,1.3,3.3,0.5,1.1 c-0.4-0.9-0.7-1.8-1.1-2.7c-1.6-3.9-3.1-7.8-4.5-11.7c-2.9-7.8-5.6-15.7-8.1-23.7c-5-15.7-9.3-31.5-13.6-47.4 c-8.1-30.4-16.2-60.8-26.1-90.7c-19.5-58.8-44.3-116.4-76.9-169.1c-31.8-51.5-71.3-99.6-118.9-137.3 c-47.9-37.8-102.6-67-161.9-82.2c-58.6-15.1-121.1-16.5-179.6-0.1c-31.3,8.8-61.2,22.2-92.4,31.2c-7.8,2.2-15.8,4.2-23.8,5.7 c-1.9,0.4-3.7,0.7-5.6,1c-0.9,0.2-1.9,0.3-2.8,0.4c-3.3,0.6,3.4-0.4,3.4-0.5c-0.4-0.4-3.6,0.4-4.3,0.5c-1.9,0.2-3.8,0.3-5.7,0.4 c-6,0.3-12.1,0.3-18.1-0.1c-1.7-0.1-3.4-0.3-5.1-0.4c-0.7-0.1-1.4-0.2-2.2-0.2c-2.7-0.2,3.6,0.4,3.6,0.5c-0.1,0.4-8.5-1.5-9.3-1.7 c-6.1-1.3-12.1-3-17.9-5.2c-1-0.4-5.8-2.3-1.4-0.5c4.4,1.8-0.3-0.2-1.3-0.7c-2.9-1.4-5.8-3-8.6-4.7c-2.4-1.4-4.6-3.1-6.9-4.6 c-2.3-1.5,3,2.4,2.8,2.1c-0.4-0.5-1.1-0.9-1.6-1.3c-1.4-1.2-2.7-2.4-4.1-3.7c-2-1.9-3.8-3.9-5.6-6c-0.4-0.5-0.8-1.1-1.3-1.6 c-0.2-0.2,3.5,5.1,2.2,2.7c-0.8-1.4-1.8-2.7-2.7-4c-1.7-2.7-3-5.4-4.4-8.2c-1.3-2.6,0.9,2.2,0.9,2.3c0-0.7-0.7-1.9-0.9-2.5 c-0.7-2-1.3-4-1.9-6c-0.5-1.7-0.9-3.5-1.2-5.2c-0.2-0.9-0.3-1.8-0.5-2.7c-0.7-2.9,0.5,2.7,0.3,2.7c0.1,0-0.8-11.5-0.8-12.7 c0-3.7,0.1-7.3,0.4-11c0.1-1.8,0.3-3.7,0.5-5.5c0.1-0.8,0.6-4,0-0.1c-0.7,4.5,0.2-1,0.3-1.9c1.2-7.6,2.9-15.2,4.7-22.6 c3.8-15.2,8.3-30.3,13.4-45.1c2.6-7.4,5.3-14.8,8.2-22.1c0.7-1.7,1.3-3.4,2-5c0.4-0.9,2.7-6.4,1.1-2.6c-1.6,3.8,0.7-1.7,1.1-2.6 c0.8-1.9,1.7-3.9,2.6-5.8c12.8-28.6,28.1-56.2,45.7-82.2c4.1-6,8.2-11.9,12.5-17.7c1.1-1.5,2.2-2.9,3.2-4.4c0.7-1,1.5-1.9,2.2-2.9 c0.4-0.6,2.4-3.1,0.1-0.1c-2.4,3.2,1.2-1.5,1.8-2.3c1.3-1.7,2.6-3.3,4-4.9c4.7-5.7,7.9-11.4,7.9-19.1c0-6.6-2.9-14.5-7.9-19.1 C431.4,6,412.5,3.3,403,15L403,15z"/></g></g></svg>