<?xml version="1.0" encoding="UTF-8" standalone="no"?><svg xmlns="http://www.w3.org/2000/svg" xmlns:xlink="http://www.w3.org/1999/xlink" fill="#000000" height="416" preserveAspectRatio="xMidYMid meet" version="1" viewBox="0.0 0.0 400.4 416.0" width="400.4" zoomAndPan="magnify"><defs><clipPath id="a"><path d="M 0 98 L 201 98 L 201 415.960938 L 0 415.960938 Z M 0 98"/></clipPath><clipPath id="b"><path d="M 151 20 L 400.359375 20 L 400.359375 415.960938 L 151 415.960938 Z M 151 20"/></clipPath><clipPath id="c"><path d="M 46 67 L 366 67 L 366 415.960938 L 46 415.960938 Z M 46 67"/></clipPath></defs><g><g clip-path="url(#a)" id="change1_1"><path d="M 200.179688 154.019531 C 200.179688 154.019531 110.28125 139.847656 28.90625 109.972656 C 19.089844 106.371094 9.394531 102.539062 0 98.476562 C -0.183594 98.394531 40.796875 333.011719 40.796875 378.546875 L 200.179688 415.960938 L 200.398438 415.90625 L 200.398438 153.980469 C 200.261719 154.003906 200.179688 154.019531 200.179688 154.019531" fill="#004aad"/></g><g clip-path="url(#b)" id="change2_1"><path d="M 167.933594 28.417969 C 167.933594 39.179688 160.894531 49.335938 160.894531 65.320312 L 160.894531 73.871094 L 158.683594 73.871094 L 158.683594 65.222656 C 158.683594 49.433594 152.148438 38.472656 152.148438 28.417969 C 152.148438 22.082031 156.371094 20.273438 160.292969 20.273438 C 164.113281 20.273438 167.933594 21.882812 167.933594 28.417969 Z M 359.566406 378.546875 L 200.398438 415.90625 L 200.398438 153.980469 C 200.480469 153.96875 200.578125 153.953125 200.703125 153.933594 L 200.902344 154.011719 L 201.234375 153.847656 C 211.519531 152.164062 296.679688 137.71875 373.5 109.214844 C 382.617188 105.832031 391.617188 102.257812 400.359375 98.476562 C 400.546875 98.394531 359.566406 333.011719 359.566406 378.546875 Z M 159.488281 77.589844 C 154.660156 77.589844 151.945312 81.007812 151.945312 85.230469 C 151.945312 88.953125 153.855469 92.773438 159.6875 92.773438 C 164.515625 92.773438 167.230469 89.65625 167.230469 85.03125 C 167.230469 79.800781 163.914062 77.589844 159.488281 77.589844" fill="#004aad"/></g><g id="change3_1"><path d="M 265.539062 335.421875 C 267.074219 333.414062 267.769531 330.933594 267.246094 328.464844 C 266.207031 323.550781 260.761719 320.542969 255.089844 321.746094 C 249.417969 322.945312 245.660156 327.898438 246.699219 332.8125 C 247.1875 335.117188 248.65625 336.996094 250.652344 338.226562 L 250.640625 338.226562 C 250.640625 338.226562 238.070312 344.484375 236.117188 360.109375 C 236.117188 360.109375 246.933594 357.257812 257.792969 354.058594 C 265.042969 351.886719 272.25 349.53125 277.875 347.292969 C 277.875 347.289062 277.207031 337.71875 265.539062 335.421875 Z M 242.183594 33.332031 C 232.921875 33.332031 224.417969 36.558594 217.714844 41.9375 C 219.390625 47.421875 220.296875 53.238281 220.296875 59.269531 C 220.296875 72.089844 216.214844 83.945312 209.296875 93.644531 C 212.191406 98.128906 215.972656 101.984375 220.398438 104.960938 C 220.410156 106.179688 220.363281 122.210938 210.410156 122.679688 C 210.410156 122.679688 230.273438 123.609375 240.464844 111.539062 C 241.035156 111.566406 241.605469 111.585938 242.183594 111.585938 C 263.792969 111.585938 281.308594 94.066406 281.308594 72.457031 C 281.308594 50.847656 263.792969 33.332031 242.183594 33.332031 Z M 171.863281 222.679688 C 158.527344 221.839844 131.097656 216.367188 114.707031 213.09375 C 105.761719 211.308594 101.050781 210.378906 100.089844 210.378906 L 100.089844 211.5625 C 100.976562 211.5625 106.933594 212.753906 114.472656 214.257812 C 130.894531 217.535156 158.375 223.019531 171.789062 223.863281 Z M 171.863281 206.109375 C 158.53125 205.269531 131.097656 199.796875 114.710938 196.523438 C 105.761719 194.738281 101.050781 193.808594 100.089844 193.808594 L 100.089844 194.992188 C 100.976562 194.992188 106.933594 196.183594 114.476562 197.6875 C 130.894531 200.964844 158.375 206.449219 171.789062 207.296875 Z M 171.863281 190.925781 C 158.53125 190.085938 131.097656 184.609375 114.710938 181.339844 C 105.761719 179.554688 101.050781 178.621094 100.089844 178.621094 L 100.089844 179.808594 C 100.976562 179.808594 106.933594 180.996094 114.476562 182.503906 C 130.894531 185.777344 158.378906 191.265625 171.789062 192.109375 Z M 171.863281 171.058594 C 158.53125 170.21875 131.097656 164.742188 114.710938 161.472656 C 105.761719 159.6875 101.050781 158.753906 100.089844 158.753906 L 100.089844 159.941406 C 100.976562 159.941406 106.933594 161.128906 114.476562 162.636719 C 130.894531 165.910156 158.378906 171.394531 171.789062 172.242188 Z M 348.039062 362.546875 L 347.519531 361.457031 C 337.242188 366.324219 316.378906 370.023438 315.644531 370.0625 L 315.699219 371.269531 C 316.988281 371.214844 337.785156 367.40625 348.039062 362.546875 Z M 347.617188 352.753906 L 347.097656 351.660156 C 336.835938 356.523438 315.957031 360.230469 315.222656 360.269531 L 315.277344 361.476562 C 316.570312 361.417969 337.382812 357.601562 347.617188 352.753906 Z M 347.195312 342.957031 L 346.675781 341.867188 C 336.398438 346.738281 315.535156 350.4375 314.800781 350.472656 L 314.855469 351.679688 C 316.144531 351.625 336.941406 347.816406 347.195312 342.957031 Z M 138.472656 351.335938 L 138.40625 350.1875 C 138.398438 350.1875 138.390625 350.1875 138.378906 350.1875 C 137.324219 350.1875 118.546875 348.597656 108.804688 344.777344 L 108.386719 345.847656 C 117.925781 349.59375 136.542969 351.335938 138.382812 351.335938 C 138.421875 351.335938 138.449219 351.335938 138.472656 351.335938 Z M 177.527344 358.75 L 177.460938 357.601562 C 176.808594 357.628906 157.703125 356.050781 147.859375 352.191406 L 147.441406 353.261719 C 156.984375 357.007812 175.597656 358.75 177.4375 358.75 C 177.472656 358.75 177.503906 358.75 177.527344 358.75 Z M 138.472656 339.175781 L 138.40625 338.027344 C 137.679688 338.0625 118.648438 336.480469 108.804688 332.621094 L 108.386719 333.691406 C 117.929688 337.433594 136.546875 339.179688 138.382812 339.179688 C 138.421875 339.179688 138.449219 339.179688 138.472656 339.175781 Z M 137.871094 329.390625 L 137.800781 328.242188 C 137.796875 328.242188 137.785156 328.242188 137.773438 328.242188 C 136.722656 328.242188 117.945312 326.652344 108.203125 322.835938 L 107.785156 323.90625 C 117.328125 327.648438 135.941406 329.394531 137.78125 329.394531 C 137.816406 329.394531 137.847656 329.394531 137.871094 329.390625 Z M 137.265625 319.605469 L 137.199219 318.457031 C 137.191406 318.457031 137.183594 318.457031 137.171875 318.457031 C 136.117188 318.457031 117.339844 316.867188 107.601562 313.050781 L 107.179688 314.121094 C 116.722656 317.863281 135.335938 319.609375 137.175781 319.609375 C 137.214844 319.609375 137.242188 319.605469 137.265625 319.605469 Z M 177.527344 346.589844 L 177.460938 345.441406 C 177.453125 345.441406 177.441406 345.441406 177.433594 345.441406 C 176.378906 345.441406 157.601562 343.851562 147.859375 340.03125 L 147.441406 341.101562 C 156.984375 344.847656 175.597656 346.59375 177.4375 346.59375 C 177.472656 346.59375 177.503906 346.589844 177.527344 346.589844 Z M 176.925781 336.804688 L 176.855469 335.65625 C 176.847656 335.65625 176.839844 335.65625 176.828125 335.65625 C 175.769531 335.65625 157.007812 334.070312 147.257812 330.25 L 146.839844 331.320312 C 156.394531 335.066406 174.984375 336.808594 176.832031 336.808594 C 176.871094 336.808594 176.902344 336.804688 176.925781 336.804688 Z M 176.320312 327.019531 L 176.253906 325.871094 C 176.246094 325.871094 176.234375 325.871094 176.226562 325.871094 C 175.171875 325.871094 156.394531 324.28125 146.652344 320.464844 L 146.234375 321.535156 C 155.777344 325.277344 174.390625 327.023438 176.230469 327.023438 C 176.265625 327.023438 176.296875 327.019531 176.320312 327.019531 Z M 302.949219 376.757812 L 302.429688 375.664062 C 292.152344 380.53125 271.289062 384.230469 270.558594 384.269531 L 270.609375 385.476562 C 271.898438 385.421875 292.695312 381.613281 302.949219 376.757812 Z M 302.527344 366.960938 L 302.007812 365.867188 C 291.734375 370.738281 270.867188 374.4375 270.136719 374.476562 L 270.1875 375.683594 C 271.480469 375.625 292.273438 371.816406 302.527344 366.960938 Z M 302.105469 357.167969 L 301.589844 356.074219 C 291.308594 360.945312 270.445312 364.644531 269.714844 364.679688 L 269.765625 365.886719 C 271.054688 365.832031 291.851562 362.023438 302.105469 357.167969 Z M 260.964844 388.375 L 260.445312 387.285156 C 250.179688 392.148438 229.304688 395.851562 228.570312 395.890625 L 228.621094 397.097656 C 229.917969 397.039062 250.730469 393.222656 260.964844 388.375 Z M 260.539062 378.582031 L 260.023438 377.488281 C 249.746094 382.359375 228.882812 386.058594 228.148438 386.09375 L 228.199219 387.300781 C 229.492188 387.246094 250.289062 383.4375 260.539062 378.582031 Z M 260.117188 368.785156 L 259.601562 367.695312 C 249.324219 372.566406 228.460938 376.265625 227.726562 376.300781 L 227.777344 377.507812 C 229.070312 377.453125 249.867188 373.644531 260.117188 368.785156 Z M 354.078125 323.605469 L 353.667969 322.492188 C 335.957031 329.007812 297.835938 337.5625 297.453125 337.648438 L 297.714844 338.808594 C 298.09375 338.722656 336.292969 330.144531 354.078125 323.605469 Z M 354.078125 309.871094 L 353.667969 308.757812 C 335.957031 315.273438 297.835938 323.832031 297.453125 323.914062 L 297.714844 325.074219 C 298.09375 324.988281 336.292969 316.414062 354.078125 309.871094 Z M 354.078125 296.882812 L 353.667969 295.769531 C 335.957031 302.285156 297.835938 310.839844 297.453125 310.925781 L 297.714844 312.085938 C 298.09375 311.996094 336.292969 303.425781 354.078125 296.882812 Z M 354.078125 281.703125 L 353.667969 280.589844 C 335.957031 287.105469 297.835938 295.660156 297.453125 295.746094 L 297.714844 296.902344 C 298.09375 296.816406 336.292969 288.246094 354.078125 281.703125 Z M 180.1875 390.390625 C 179.386719 390.3125 99.671875 382.265625 54.101562 362.285156 L 53.664062 363.285156 C 99.386719 383.332031 179.277344 391.398438 180.082031 391.476562 Z M 180.1875 372.945312 C 179.386719 372.867188 99.671875 364.820312 54.101562 344.839844 L 53.664062 345.839844 C 99.386719 365.890625 179.277344 373.953125 180.082031 374.03125 Z M 180.355469 305.257812 C 179.484375 305.171875 92.949219 296.4375 43.480469 274.75 L 43.003906 275.835938 C 92.644531 297.601562 179.367188 306.351562 180.238281 306.4375 Z M 180.355469 286.324219 C 179.484375 286.238281 92.949219 277.503906 43.480469 255.8125 L 43.003906 256.898438 C 92.644531 278.664062 179.367188 287.417969 180.238281 287.503906 Z M 178.855469 267.402344 C 177.988281 267.316406 91.445312 258.582031 41.980469 236.894531 L 41.503906 237.980469 C 91.144531 259.742188 177.867188 268.496094 178.738281 268.582031 Z M 176.402344 248.53125 C 175.53125 248.445312 88.996094 239.714844 39.527344 218.023438 L 39.050781 219.109375 C 88.6875 240.875 175.414062 249.628906 176.285156 249.714844 Z M 359.359375 255.269531 L 358.824219 254.210938 C 310.609375 278.550781 224.671875 291.96875 223.808594 292.101562 L 223.988281 293.273438 C 224.851562 293.140625 310.976562 279.695312 359.359375 255.269531 Z M 359.828125 236.296875 L 359.292969 235.234375 C 311.078125 259.578125 225.140625 272.996094 224.277344 273.128906 L 224.460938 274.300781 C 225.324219 274.167969 311.445312 260.722656 359.828125 236.296875 Z M 361.257812 217.320312 L 360.722656 216.261719 C 312.507812 240.601562 226.566406 254.019531 225.707031 254.152344 L 225.886719 255.324219 C 226.75 255.191406 312.871094 241.746094 361.257812 217.320312 Z M 376.054688 84.761719 L 353.296875 93.785156 L 354.652344 77.488281 L 201.234375 153.847656 C 211.519531 152.164062 296.679688 137.71875 373.5 109.214844 Z M 200.703125 153.933594 C 200.371094 153.988281 200.179688 154.019531 200.179688 154.019531 L 200.179688 187.953125 L 200.179688 154.019531 C 200.179688 154.019531 110.28125 139.847656 28.90625 109.972656 L 26.273438 84.761719 L 47 92.980469 L 45.710938 77.488281 L 193.8125 151.199219 L 200.703125 153.933594" fill="#004aad"/></g><g id="change4_1"><path d="M 167.933594 28.417969 C 167.933594 21.882812 164.113281 20.273438 160.292969 20.273438 C 156.371094 20.273438 152.148438 22.082031 152.148438 28.417969 C 152.148438 38.472656 158.683594 49.433594 158.683594 65.222656 L 158.683594 73.871094 L 160.894531 73.871094 L 160.894531 65.320312 C 160.894531 49.335938 167.933594 39.179688 167.933594 28.417969 Z M 167.230469 85.03125 C 167.230469 79.800781 163.914062 77.589844 159.488281 77.589844 C 154.660156 77.589844 151.945312 81.007812 151.945312 85.230469 C 151.945312 88.953125 153.855469 92.773438 159.6875 92.773438 C 164.515625 92.773438 167.230469 89.65625 167.230469 85.03125 Z M 217.714844 41.9375 C 219.390625 47.421875 220.296875 53.238281 220.296875 59.269531 C 220.296875 72.089844 216.214844 83.945312 209.296875 93.644531 C 205.144531 99.464844 199.976562 104.511719 194.035156 108.503906 C 194.015625 110.351562 194.089844 134.636719 209.160156 135.347656 C 209.160156 135.347656 179.074219 136.757812 163.640625 118.472656 C 162.773438 118.511719 161.90625 118.539062 161.03125 118.539062 C 128.296875 118.539062 101.761719 92.003906 101.761719 59.269531 C 101.761719 26.539062 128.296875 0.00390625 161.03125 0.00390625 C 187.730469 0.00390625 210.300781 17.664062 217.714844 41.9375 C 216.042969 43.28125 214.480469 44.761719 213.046875 46.359375 C 214.480469 44.761719 216.042969 43.28125 217.714844 41.9375 Z M 236.21875 360.082031 C 242.183594 358.519531 250.011719 356.394531 257.792969 354.058594 C 247.53125 357.078125 237.316406 359.792969 236.21875 360.082031 Z M 236.21875 360.082031 C 236.183594 360.09375 236.148438 360.101562 236.117188 360.109375 C 236.117188 360.109375 236.15625 360.101562 236.21875 360.082031 Z M 225.796875 175.523438 L 225.796875 233.394531 C 297.898438 226.753906 364.308594 195.761719 364.308594 195.761719 L 373.796875 135.042969 C 339.007812 154.019531 225.796875 175.523438 225.796875 175.523438 Z M 225.796875 362.734375 C 225.796875 362.734375 229.949219 361.726562 236.117188 360.109375 C 238.070312 344.484375 250.640625 338.226562 250.640625 338.226562 L 250.652344 338.226562 C 248.65625 336.996094 247.1875 335.117188 246.699219 332.8125 C 245.660156 327.898438 249.417969 322.945312 255.089844 321.746094 C 260.761719 320.542969 266.207031 323.550781 267.246094 328.464844 C 267.769531 330.933594 267.074219 333.414062 265.539062 335.421875 C 277.207031 337.71875 277.875 347.289062 277.875 347.292969 C 280.375 346.296875 282.5625 345.320312 284.300781 344.394531 L 286.199219 298.539062 C 286.199219 298.539062 230.222656 312.136719 225.796875 312.769531 Z M 85.203125 208.277344 L 72.375 179.214844 C 69.707031 182.304688 62.375 184.625 56.707031 184.457031 C 51.039062 184.285156 44.007812 188.003906 44.007812 188.003906 L 35.875 167.632812 C 35.875 167.632812 39.207031 160.625 50.875 161.125 C 62.539062 161.625 66.039062 159.347656 66.039062 159.347656 L 64.375 154.792969 L 66.375 154.019531 L 84.667969 202.6875 L 84.796875 204.039062 L 79.691406 150.722656 C 59.453125 149.320312 25.933594 135.042969 25.933594 135.042969 L 39.214844 202.6875 C 47.4375 210.875 86.019531 216.789062 86.019531 216.789062 Z M 98.601562 307.773438 L 101.761719 352.046875 C 94.171875 351.097656 56.609375 340.601562 55.976562 340.601562 C 55.34375 340.601562 50.597656 292.6875 50.597656 292.6875 L 98.601562 307.773438" fill="#5cadfc"/></g><g clip-path="url(#c)" id="change5_1"><path d="M 260.730469 67.242188 C 263.976562 67.242188 266.289062 68.867188 266.289062 72.554688 C 266.289062 75.863281 264.414062 78.113281 260.917969 78.113281 C 256.730469 78.113281 255.359375 75.238281 255.359375 72.738281 C 255.359375 69.679688 257.230469 67.242188 260.730469 67.242188 Z M 244.175781 67.242188 C 247.421875 67.242188 249.734375 68.867188 249.734375 72.554688 C 249.734375 75.863281 247.859375 78.113281 244.363281 78.113281 C 240.175781 78.113281 238.804688 75.238281 238.804688 72.738281 C 238.804688 69.679688 240.675781 67.242188 244.175781 67.242188 Z M 227.621094 67.242188 C 230.867188 67.242188 233.179688 68.867188 233.179688 72.554688 C 233.179688 75.863281 231.304688 78.113281 227.808594 78.113281 C 223.621094 78.113281 222.25 75.238281 222.25 72.738281 C 222.25 69.679688 224.121094 67.242188 227.621094 67.242188 Z M 92.980469 327.011719 C 93.4375 326.386719 93.742188 325.671875 93.84375 324.886719 C 94.222656 321.976562 91.726562 319.253906 88.269531 318.804688 C 84.808594 318.355469 81.703125 320.351562 81.324219 323.261719 C 81.214844 324.113281 81.355469 324.949219 81.691406 325.71875 C 81.691406 325.71875 79.421875 327 77.5625 328.808594 C 76.582031 325.640625 74.886719 322.882812 72.042969 321.417969 C 72.496094 320.796875 72.804688 320.078125 72.90625 319.292969 C 73.28125 316.382812 70.785156 313.660156 67.328125 313.210938 C 63.871094 312.765625 60.761719 314.757812 60.386719 317.667969 C 60.273438 318.523438 60.417969 319.355469 60.753906 320.125 C 60.753906 320.125 53.828125 324.019531 54.261719 327.828125 L 55.976562 340.601562 L 76.90625 346.136719 L 76.914062 346.191406 L 99.128906 351.589844 C 99.128906 351.589844 102.691406 332.011719 92.980469 327.011719 Z M 363.214844 148.5 C 362.347656 148.890625 361.910156 149.085938 361.039062 149.46875 C 361.027344 149.335938 361.019531 149.269531 361.007812 149.140625 C 362.707031 148.390625 363.554688 148.007812 365.242188 147.230469 C 365.253906 147.359375 365.261719 147.425781 365.273438 147.558594 C 364.707031 147.820312 364.425781 147.949219 363.859375 148.207031 C 362.828125 151.554688 362.273438 153.515625 361.15625 157.496094 C 361.339844 160.917969 361.417969 162.785156 361.570312 166.515625 C 362.097656 166.339844 362.359375 166.253906 362.882812 166.078125 C 362.890625 166.292969 362.894531 166.402344 362.90625 166.621094 C 360.183594 167.515625 358.816406 167.953125 356.078125 168.792969 C 356.070312 168.589844 356.0625 168.488281 356.054688 168.289062 C 356.582031 168.121094 356.84375 168.039062 357.371094 167.871094 C 357.214844 164.503906 357.140625 162.808594 356.964844 159.652344 C 355.285156 156.648438 354.433594 155.296875 352.675781 152.976562 C 352.265625 153.140625 352.058594 153.222656 351.648438 153.382812 C 351.636719 153.25 351.632812 153.183594 351.617188 153.054688 C 354.414062 151.949219 355.8125 151.375 358.585938 150.1875 C 358.597656 150.320312 358.605469 150.386719 358.617188 150.519531 C 358.050781 150.761719 357.769531 150.878906 357.207031 151.117188 C 358.628906 153.207031 359.320312 154.429688 360.671875 157.144531 C 361.722656 153.445312 362.242188 151.632812 363.214844 148.5 Z M 343.21875 166.3125 C 344.796875 165.8125 345.582031 165.554688 347.160156 165.03125 C 346.238281 162.757812 345.773438 161.664062 344.824219 159.617188 C 344.1875 162.230469 343.863281 163.597656 343.21875 166.3125 Z M 347.367188 165.503906 C 345.644531 166.070312 344.78125 166.347656 343.058594 166.890625 C 342.53125 169.128906 342.265625 170.253906 341.742188 172.46875 C 342.390625 172.289062 342.714844 172.199219 343.363281 172.019531 C 343.378906 172.203125 343.382812 172.292969 343.394531 172.472656 C 342.070312 172.835938 341.410156 173.011719 340.089844 173.363281 C 340.074219 173.1875 340.070312 173.101562 340.058594 172.925781 C 340.464844 172.8125 340.667969 172.761719 341.074219 172.648438 C 342.824219 165.628906 343.746094 161.699219 345.4375 155.277344 C 346.15625 155.015625 346.515625 154.882812 347.234375 154.613281 C 349.984375 159.382812 351.269531 162.476562 353.8125 168.980469 C 354.210938 168.859375 354.40625 168.800781 354.804688 168.675781 C 354.816406 168.875 354.820312 168.976562 354.828125 169.175781 C 352.003906 170.035156 350.589844 170.449219 347.761719 171.257812 C 347.753906 171.066406 347.746094 170.972656 347.734375 170.785156 C 348.347656 170.609375 348.65625 170.519531 349.269531 170.339844 C 348.515625 168.359375 348.136719 167.386719 347.367188 165.503906 Z M 331.953125 175.027344 C 334.855469 174.296875 335.855469 171.980469 335.441406 167.015625 C 335.398438 166.5 335.378906 166.246094 335.335938 165.734375 C 334.882812 160.394531 333.410156 159.921875 330.367188 160.839844 C 330.15625 160.902344 330.054688 160.933594 329.84375 160.996094 C 330.386719 166.46875 330.632812 169.4375 331.132812 175.230469 C 331.460938 175.148438 331.625 175.109375 331.953125 175.027344 Z M 331.644531 175.527344 C 329.210938 176.128906 327.992188 176.421875 325.570312 176.996094 C 325.554688 176.832031 325.546875 176.753906 325.53125 176.589844 C 326.097656 176.457031 326.378906 176.390625 326.945312 176.253906 C 326.425781 170.578125 326.167969 167.703125 325.621094 162.21875 C 325.050781 162.378906 324.769531 162.460938 324.199219 162.617188 C 324.183594 162.457031 324.175781 162.378906 324.160156 162.222656 C 326.824219 161.492188 328.164062 161.105469 330.851562 160.289062 C 336.222656 158.660156 339.425781 159.289062 339.867188 164.910156 C 340.363281 171.277344 336.78125 174.257812 331.644531 175.527344 Z M 319.066406 170.320312 C 318.648438 166.042969 318.3125 163.941406 315.753906 164.566406 C 313.171875 165.199219 313.214844 167.453125 313.632812 171.726562 C 313.691406 172.324219 313.722656 172.625 313.78125 173.226562 C 314.164062 177.144531 314.640625 179.328125 317.136719 178.726562 C 319.527344 178.148438 319.628906 176.058594 319.21875 171.863281 C 319.15625 171.246094 319.128906 170.9375 319.066406 170.320312 Z M 315.878906 164.089844 C 320.46875 162.96875 323.082031 165.074219 323.539062 169.859375 C 323.992188 174.554688 322.023438 177.992188 317.09375 179.183594 C 312.339844 180.335938 309.789062 178.230469 309.339844 173.648438 C 308.871094 168.855469 311.121094 165.25 315.878906 164.089844 Z M 308.097656 171.613281 C 307.933594 171.652344 307.851562 171.675781 307.691406 171.714844 C 306.203125 168.609375 305.40625 167.382812 303.464844 167.878906 C 303.363281 167.902344 303.3125 167.917969 303.207031 167.945312 C 303.746094 173.425781 304.015625 176.164062 304.550781 181.644531 C 305.277344 181.460938 305.640625 181.367188 306.367188 181.1875 C 306.382812 181.359375 306.390625 181.449219 306.40625 181.621094 C 303.292969 182.410156 301.734375 182.808594 298.617188 183.609375 C 298.601562 183.433594 298.59375 183.347656 298.574219 183.171875 C 299.300781 182.984375 299.664062 182.890625 300.390625 182.707031 C 299.851562 177.226562 299.582031 174.488281 299.046875 169.007812 C 298.933594 169.035156 298.878906 169.050781 298.769531 169.078125 C 296.824219 169.574219 296.253906 171.324219 295.480469 174.828125 C 295.316406 174.871094 295.238281 174.890625 295.074219 174.933594 C 294.957031 172.820312 294.894531 171.765625 294.777344 169.652344 C 299.8125 168.363281 302.332031 167.710938 307.371094 166.4375 C 307.660156 168.507812 307.804688 169.542969 308.097656 171.613281 Z M 287.988281 183.84375 C 287.820312 182.117188 286.4375 181.886719 283.742188 181.816406 C 281.097656 181.75 279.03125 181.234375 278.722656 178.085938 C 278.496094 175.75 280.054688 173.132812 283.339844 172.3125 C 285.300781 171.824219 286.476562 172.191406 287.199219 172.007812 C 287.5625 171.914062 287.65625 171.742188 287.777344 171.433594 C 287.871094 171.410156 287.921875 171.398438 288.011719 171.375 C 288.238281 173.042969 288.351562 173.875 288.574219 175.542969 C 288.4375 175.578125 288.371094 175.597656 288.234375 175.628906 C 286.957031 173.988281 285.300781 172.273438 283.105469 172.820312 C 281.566406 173.203125 280.585938 174.339844 280.707031 175.570312 C 280.859375 177.113281 282.363281 177.273438 284.570312 177.300781 C 286.996094 177.328125 289.703125 177.457031 290.042969 180.910156 C 290.335938 183.910156 288.4375 186.425781 285.300781 187.210938 C 283.230469 187.734375 281.378906 187.550781 280.777344 187.699219 C 280.4375 187.78125 280.332031 188.042969 280.199219 188.480469 C 280.082031 188.511719 280.019531 188.527344 279.902344 188.554688 C 279.621094 186.59375 279.480469 185.609375 279.203125 183.644531 C 279.347656 183.609375 279.421875 183.59375 279.566406 183.558594 C 280.835938 185.378906 283.144531 187.308594 285.492188 186.71875 C 286.773438 186.394531 288.136719 185.363281 287.988281 183.84375 Z M 267.816406 180.734375 C 267.148438 179.253906 266.8125 178.515625 266.144531 177.027344 C 265.660156 177.136719 265.414062 177.191406 264.929688 177.296875 C 264.914062 177.136719 264.90625 177.058594 264.890625 176.898438 C 267.535156 176.320312 268.859375 176.019531 271.503906 175.40625 C 271.519531 175.566406 271.527344 175.644531 271.542969 175.804688 C 271.039062 175.921875 270.785156 175.980469 270.28125 176.09375 C 271.941406 179.753906 272.769531 181.582031 274.425781 185.226562 C 275.066406 181.035156 275.382812 178.9375 276.023438 174.746094 C 275.160156 174.953125 274.726562 175.054688 273.867188 175.257812 C 273.851562 175.101562 273.84375 175.019531 273.828125 174.863281 C 275.535156 174.457031 276.386719 174.253906 278.09375 173.839844 C 278.109375 173.996094 278.117188 174.078125 278.132812 174.234375 C 277.570312 174.371094 277.289062 174.441406 276.726562 174.578125 C 275.71875 180.722656 275.214844 183.792969 274.210938 189.933594 C 273.449219 190.113281 273.070312 190.203125 272.3125 190.378906 C 270.679688 186.902344 269.863281 185.160156 268.230469 181.664062 C 267.492188 185.695312 267.121094 187.710938 266.382812 191.738281 C 265.640625 191.902344 265.269531 191.984375 264.527344 192.148438 C 261.8125 186.835938 260.457031 184.167969 257.746094 178.804688 C 257.34375 178.882812 257.144531 178.921875 256.742188 179.003906 C 256.726562 178.84375 256.71875 178.761719 256.707031 178.601562 C 259.476562 178.058594 260.859375 177.769531 263.632812 177.171875 C 263.648438 177.332031 263.65625 177.410156 263.671875 177.570312 C 263.074219 177.699219 262.777344 177.761719 262.179688 177.890625 C 263.960938 181.605469 264.851562 183.457031 266.632812 187.152344 C 267.105469 184.585938 267.339844 183.304688 267.816406 180.734375 Z M 255.664062 178.808594 C 255.910156 180.453125 256.035156 181.273438 256.28125 182.921875 C 256.128906 182.949219 256.050781 182.964844 255.898438 182.992188 C 254.460938 180.476562 253.363281 179.726562 250.789062 180.1875 C 250.488281 180.238281 250.339844 180.265625 250.042969 180.320312 C 250.296875 182.917969 250.421875 184.21875 250.671875 186.816406 C 250.964844 186.765625 251.105469 186.738281 251.398438 186.6875 C 252.78125 186.433594 253.5625 185.109375 253.769531 183.445312 C 253.898438 183.421875 253.964844 183.410156 254.089844 183.386719 C 254.332031 185.871094 254.453125 187.113281 254.691406 189.597656 C 254.546875 189.628906 254.476562 189.640625 254.332031 189.667969 C 253.617188 187.667969 252.726562 187.003906 251.234375 187.269531 C 251.03125 187.308594 250.929688 187.328125 250.726562 187.363281 C 250.988281 190.0625 251.117188 191.414062 251.378906 194.109375 C 251.703125 194.050781 251.863281 194.023438 252.1875 193.960938 C 254.894531 193.464844 256.59375 191.257812 257.011719 188.847656 C 257.179688 188.8125 257.265625 188.796875 257.4375 188.761719 C 257.546875 190.601562 257.601562 191.523438 257.710938 193.367188 C 253.027344 194.308594 250.6875 194.742188 246.015625 195.507812 C 245.996094 195.324219 245.988281 195.230469 245.96875 195.046875 C 246.472656 194.964844 246.722656 194.921875 247.226562 194.835938 C 246.691406 189.3125 246.425781 186.550781 245.890625 181.019531 C 245.386719 181.101562 245.136719 181.140625 244.632812 181.222656 C 244.617188 181.035156 244.609375 180.941406 244.589844 180.757812 C 249.015625 180.0625 251.234375 179.664062 255.664062 178.808594 Z M 243.867188 195.851562 C 242.675781 196.035156 242.078125 196.125 240.886719 196.296875 C 237.441406 191.25 235.722656 188.695312 232.28125 183.511719 C 232.789062 188.839844 233.046875 191.503906 233.554688 196.828125 C 234.023438 196.777344 234.257812 196.75 234.722656 196.695312 C 234.738281 196.855469 234.746094 196.9375 234.761719 197.097656 C 233.597656 197.234375 233.015625 197.300781 231.851562 197.421875 C 231.835938 197.261719 231.828125 197.179688 231.8125 197.019531 C 232.277344 196.96875 232.511719 196.945312 232.980469 196.894531 C 232.445312 191.277344 232.175781 188.46875 231.636719 182.847656 C 231.167969 182.894531 230.933594 182.917969 230.46875 182.960938 C 230.453125 182.800781 230.445312 182.71875 230.429688 182.558594 C 232.773438 182.332031 233.949219 182.203125 236.296875 181.914062 C 238.933594 185.894531 240.253906 187.863281 242.890625 191.761719 C 242.5 187.6875 242.300781 185.648438 241.910156 181.570312 C 241.441406 181.636719 241.207031 181.671875 240.738281 181.738281 C 240.722656 181.578125 240.714844 181.496094 240.699219 181.335938 C 241.867188 181.171875 242.449219 181.085938 243.613281 180.90625 C 243.628906 181.066406 243.636719 181.148438 243.652344 181.308594 C 243.183594 181.378906 242.949219 181.414062 242.484375 181.484375 C 243.035156 187.234375 243.3125 190.105469 243.867188 195.851562 Z M 200.398438 153.46875 L 47.21875 92.429688 L 46.777344 93.53125 L 199.960938 154.566406 Z M 200.773438 415.960938 L 199.589844 415.960938 L 199.589844 153.613281 L 353.078125 93.234375 L 353.511719 94.339844 L 200.773438 154.421875 L 200.773438 415.960938" fill="#ffffff"/></g></g></svg>