<?xml version="1.0" encoding="utf-8" standalone="no"?><!-- Generator: Adobe Illustrator 16.0.0, SVG Export Plug-In . SVG Version: 6.00 Build 0)  --><svg xmlns="http://www.w3.org/2000/svg" xmlns:xlink="http://www.w3.org/1999/xlink" enable-background="new 0 0 500 67.797" fill="#000000" height="67.797px" id="Layer_1" version="1.1" viewBox="0 0 500 67.797" width="500px" x="0px" xml:space="preserve" y="0px">
<g id="change2">
	<path d="M141.952,64.407c-16.819,0-30.508-13.692-30.508-30.509c0-16.82,13.688-30.509,30.508-30.509   c16.82,0,30.509,13.688,30.509,30.509C172.461,50.715,158.772,64.407,141.952,64.407z" fill="#5cadfc"/>
</g>
<g id="change3">
	<path d="M141.952,6.779c14.957,0,27.119,12.163,27.119,27.119s-12.162,27.118-27.119,27.118   c-14.956,0-27.118-12.162-27.118-27.118S126.989,6.779,141.952,6.779 M141.952,0c-18.727,0-33.898,15.172-33.898,33.898   c0,18.724,15.172,33.898,33.898,33.898c18.728,0,33.898-15.175,33.898-33.898C175.851,15.172,160.673,0,141.952,0L141.952,0z" fill="#004aad"/>
</g>
<g id="change1">
	<path d="M33.898,64.407c-16.82,0-30.509-13.692-30.509-30.509c0-16.82,13.688-30.509,30.509-30.509   s30.509,13.688,30.509,30.509C64.407,50.715,50.719,64.407,33.898,64.407z" fill="#ffffff"/>
	<path d="M250,64.407c-16.82,0-30.509-13.692-30.509-30.509c0-16.82,13.688-30.509,30.509-30.509   c16.816,0,30.509,13.688,30.509,30.509C280.509,50.715,266.816,64.407,250,64.407z" fill="#ffffff"/>
	<path d="M358.051,64.407c-16.823,0-30.509-13.692-30.509-30.509c0-16.82,13.686-30.509,30.509-30.509   c16.804,0,30.509,13.688,30.509,30.509C388.56,50.715,374.874,64.407,358.051,64.407z" fill="#ffffff"/>
	<path d="M466.102,64.407c-16.816,0-30.509-13.692-30.509-30.509c0-16.82,13.692-30.509,30.509-30.509   s30.509,13.688,30.509,30.509C496.61,50.715,482.918,64.407,466.102,64.407z" fill="#ffffff"/>
</g>
<g id="change2_1_">
	<path d="M33.898,6.779c14.956,0,27.118,12.163,27.118,27.119S48.854,61.017,33.898,61.017   c-14.957,0-27.119-12.162-27.119-27.118S18.942,6.779,33.898,6.779 M33.898,0C15.171,0,0,15.172,0,33.898   c0,18.724,15.171,33.898,33.898,33.898c18.727,0,33.898-15.175,33.898-33.898C67.797,15.172,52.625,0,33.898,0L33.898,0z" fill="#5cadfc"/>
	<path d="M250,6.779c14.956,0,27.119,12.163,27.119,27.119S264.956,61.017,250,61.017s-27.118-12.162-27.118-27.118   S235.044,6.779,250,6.779 M250,0c-18.727,0-33.898,15.172-33.898,33.898c0,18.724,15.172,33.898,33.898,33.898   c18.724,0,33.898-15.175,33.898-33.898C283.898,15.172,268.724,0,250,0L250,0z" fill="#5cadfc"/>
	<path d="M358.051,6.779c14.95,0,27.119,12.163,27.119,27.119s-12.169,27.118-27.119,27.118   c-14.963,0-27.118-12.162-27.118-27.118S343.088,6.779,358.051,6.779 M358.051,0c-18.743,0-33.898,15.172-33.898,33.898   c0,18.724,15.155,33.898,33.898,33.898c18.724,0,33.898-15.175,33.898-33.898C391.949,15.172,376.774,0,358.051,0L358.051,0z" fill="#5cadfc"/>
	<path d="M466.102,6.779c14.956,0,27.119,12.163,27.119,27.119s-12.163,27.118-27.119,27.118   s-27.118-12.162-27.118-27.118S451.146,6.779,466.102,6.779 M466.102,0c-18.724,0-33.898,15.172-33.898,33.898   c0,18.724,15.175,33.898,33.898,33.898S500,52.622,500,33.898C500,15.172,484.825,0,466.102,0L466.102,0z" fill="#5cadfc"/>
</g>
</svg>