<?xml version="1.0" encoding="UTF-8" standalone="no"?><svg xmlns="http://www.w3.org/2000/svg" xmlns:xlink="http://www.w3.org/1999/xlink" data-name="Layer 1" fill="#5daefe" height="62" preserveAspectRatio="xMidYMid meet" version="1" viewBox="1.0 1.0 62.0 62.0" width="62" zoomAndPan="magnify"><g id="change1_1"><path d="M41 50H43V52H41z"/></g><g id="change1_2"><path d="M61 50H63V52H61z"/></g><g id="change1_3"><path d="M51 40H53V42H51z"/></g><g id="change1_4"><path d="M43.93 42.93H45.93V44.93H43.93z" transform="rotate(-45 44.935 43.927)"/></g><g id="change1_5"><path d="M58.07 57.07H60.07V59.07H58.07z" transform="rotate(-44.99 59.067 58.068)"/></g><g id="change1_6"><path d="M43.93 57.07H45.93V59.07H43.93z" transform="rotate(-45 44.933 58.068)"/></g><g id="change1_7"><path d="M58.07 42.93H60.07V44.93H58.07z" transform="rotate(-45 59.076 43.93)"/></g><g id="change1_8"><path d="M56.41,45.56a7,7,0,1,0-7.91,11.5V59.5a3.5,3.5,0,0,0,7,0V57.06a7,7,0,0,0,.91-11.5ZM53.5,59.5a1.5,1.5,0,0,1-3,0V59h3Zm.58-4a1,1,0,0,0-.58.91V57h-3v-.55a1,1,0,0,0-.58-.91,5,5,0,0,1,1-9.42,5,5,0,0,1,3.18,9.42Z"/></g><g id="change1_9"><path d="M24.06,33.81a1.58,1.58,0,0,0,.18,1.27L25.37,37a1.72,1.72,0,0,0,2.3.61l.26-.15a7.19,7.19,0,0,0,1.24.7v.22A1.69,1.69,0,0,0,30.87,40h2.26a1.69,1.69,0,0,0,1.7-1.67v-.22a6.83,6.83,0,0,0,1.24-.7l.26.15a1.72,1.72,0,0,0,2.3-.61l1.13-1.87a1.58,1.58,0,0,0,.18-1.27,1.66,1.66,0,0,0-.81-1l-.21-.12c0-.21,0-.43,0-.65s0-.44,0-.65l.21-.12a1.66,1.66,0,0,0,.81-1,1.58,1.58,0,0,0-.18-1.27l-1.13-1.87a1.72,1.72,0,0,0-2.3-.61l-.26.15a7.19,7.19,0,0,0-1.24-.7v-.22A1.69,1.69,0,0,0,33.13,24H30.87a1.69,1.69,0,0,0-1.7,1.67v.22a6.83,6.83,0,0,0-1.24.7l-.26-.15a1.72,1.72,0,0,0-2.3.61l-1.13,1.87a1.58,1.58,0,0,0-.18,1.27,1.66,1.66,0,0,0,.81,1l.21.12c0,.21,0,.43,0,.65s0,.44,0,.65l-.21.12A1.66,1.66,0,0,0,24.06,33.81Zm3-1.81c0-.21,0-.42,0-.63a1.65,1.65,0,0,0-.85-1.67l-.1-.06.79-1.32.18.1A1.76,1.76,0,0,0,29,28.29a4.84,4.84,0,0,1,1.09-.61,1.69,1.69,0,0,0,1.09-1.56V26h1.66v.12a1.69,1.69,0,0,0,1.09,1.56,5.14,5.14,0,0,1,1.1.61,1.74,1.74,0,0,0,1.87.13l.18-.1.79,1.32-.1.06a1.67,1.67,0,0,0-.86,1.67A4.46,4.46,0,0,1,37,32c0,.21,0,.42,0,.63a1.65,1.65,0,0,0,.85,1.67l.1.06-.79,1.32-.18-.1a1.76,1.76,0,0,0-1.88.13,4.84,4.84,0,0,1-1.09.61,1.69,1.69,0,0,0-1.09,1.56V38H31.17v-.12a1.69,1.69,0,0,0-1.09-1.56,5.14,5.14,0,0,1-1.1-.61,1.74,1.74,0,0,0-1.87-.13l-.18.1-.79-1.32.1-.06a1.67,1.67,0,0,0,.86-1.67A4.46,4.46,0,0,1,27.05,32Z"/></g><g id="change1_10"><path d="M32,35.25A3.25,3.25,0,1,0,28.75,32,3.26,3.26,0,0,0,32,35.25Zm0-4.5A1.25,1.25,0,1,1,30.75,32,1.25,1.25,0,0,1,32,30.75Z"/></g><g id="change1_11"><path d="M20,33h1V31H20a11,11,0,0,0,0,22H32.39l-1.9,1.14,1,1.72,5-3a1,1,0,0,0,0-1.72l-5-3-1,1.72L32.39,51H20a9,9,0,0,1,0-18Z"/></g><g id="change1_12"><path d="M44,11H27v2H44a9,9,0,0,1,0,18H43v2h1a11,11,0,0,0,0-22Z"/></g><g id="change1_13"><path d="M12,23A11,11,0,1,0,1,12,11,11,0,0,0,12,23ZM12,3a9,9,0,1,1-9,9A9,9,0,0,1,12,3Z"/></g><g id="change1_14"><path d="M12,7a2,2,0,0,1,0,4,1,1,0,0,0-1,1v3h2V12.87A4,4,0,1,0,8,9h2A2,2,0,0,1,12,7Z"/></g><g id="change1_15"><path d="M11 17H13V19H11z"/></g></svg>