<?xml version="1.0" encoding="UTF-8" standalone="no"?><svg xmlns="http://www.w3.org/2000/svg" xmlns:xlink="http://www.w3.org/1999/xlink" fill="none" height="455.4" preserveAspectRatio="xMidYMid meet" style="fill: none" version="1" viewBox="1.9 28.4 505.9 455.4" width="505.9" zoomAndPan="magnify"><g id="change1_1"><path d="M151.763 483.751H292.715H375.404C401.195 483.751 426.097 474.324 445.426 457.243L468.521 436.834C507.769 402.152 504.485 339.943 461.804 309.589C427.451 285.157 417.458 238.516 438.785 202.147L441.195 198.037C460.472 165.164 455.98 123.545 430.132 95.5453L398.961 61.7777C368.143 28.3933 314.196 32.7443 289.123 70.6366C270.058 99.4501 232.836 110.052 201.457 95.6065L187.828 89.3324C148.682 71.3116 102.248 84.4743 78.3731 120.36L63.0668 143.366C47.9236 166.127 46.0701 195.241 58.2044 219.74C72.1541 247.904 67.4695 281.737 46.3923 305.048L40.2504 311.841C1.88798 354.269 12.3259 421.267 61.7758 450.006L92.2356 467.708C110.316 478.216 130.853 483.751 151.763 483.751Z" fill="#e7e8ff"/></g><g id="change2_1"><path d="M482.661 418.37C483.038 447.061 463.514 471.286 453.598 479.77H438.401C449.698 441.489 468.375 422.454 478.842 416.119C480.584 415.064 482.634 416.33 482.661 418.37Z" fill="#032068"/></g><g id="change3_1"><path d="M484.266 324.233C499.834 382.9 460.593 452.382 443.719 478.247H409.527C424.214 367.555 448.837 340.653 479.965 322.475C481.637 321.499 483.769 322.36 484.266 324.233Z" fill="#ffffff"/></g><g id="change2_2"><path clip-rule="evenodd" d="M480.73 323.79C481.552 323.311 482.563 323.741 482.798 324.625C490.467 353.527 484.656 385.217 474.728 413.028C464.983 440.323 451.337 463.702 442.896 476.724H411.264C418.573 422.455 428.289 388.739 439.928 366.373C451.648 343.85 465.351 332.771 480.73 323.79ZM485.735 323.842C484.975 320.978 481.721 319.686 479.2 321.159C463.45 330.356 449.278 341.818 437.233 364.964C425.23 388.03 415.373 422.634 408.021 478.046L407.792 479.77H444.541L444.991 479.08C453.465 466.091 467.561 442.143 477.589 414.054C487.608 385.991 493.633 353.607 485.735 323.842Z" fill="#032068" fill-rule="evenodd"/></g><g id="change2_3"><path d="M429.136 360.326C442.583 409.489 427.19 460.581 417.126 479.77H392.052C386.412 419.852 409.335 376.281 424.407 359.152C425.894 357.462 428.542 358.153 429.136 360.326Z" fill="#032068"/></g><g id="change2_4"><path clip-rule="evenodd" d="M462.98 365.978L471.16 342.945L474.023 343.967L455.288 396.724L467.596 393.02L468.47 395.937L454.023 400.285L436.983 448.266L452.32 442.55L453.379 445.406L435.653 452.012L426.155 478.758L423.291 477.736L442.582 423.417L435.449 403.367L438.312 402.344L444.194 418.878L461.257 370.83L455.94 353.031L458.851 352.157L462.98 365.978Z" fill="#032068" fill-rule="evenodd"/></g><g id="change3_2"><path clip-rule="evenodd" d="M416.312 399.583L420.189 378.214L423.179 378.759L415.31 422.135L425.535 416.738L426.951 419.434L414.62 425.942L407.871 463.145L416.325 456.488L418.202 458.883L407.051 467.665L404.944 479.281L401.953 478.736L407.359 448.939L398.444 437.29L400.855 435.436L408.093 444.893L415.632 403.332L408.412 395.513L410.642 393.444L416.312 399.583Z" fill="#ffffff" fill-rule="evenodd"/></g><g id="change3_3"><path d="M148.045 119.85L153.89 121.266C154.931 121.519 155.036 122.958 154.043 123.358L148.596 125.556C148.267 125.689 148.022 125.973 147.938 126.318L146.424 132.565C146.18 133.571 144.809 133.716 144.361 132.783L141.545 126.928C141.408 126.643 141.155 126.431 140.852 126.345L133.983 124.406C132.963 124.118 132.898 122.696 133.888 122.317L140.137 119.923C140.441 119.806 140.679 119.561 140.785 119.253L143.153 112.369C143.501 111.356 144.943 111.386 145.25 112.412L147.249 119.095C147.361 119.47 147.664 119.757 148.045 119.85Z" fill="#ffffff"/></g><g id="change3_4"><path d="M101.324 177.52L102.832 178.744C103.663 179.419 103.14 180.763 102.071 180.698L100.189 180.584C99.8345 180.563 99.4913 180.714 99.2673 180.99L97.783 182.818C97.1306 183.622 95.8304 183.164 95.8261 182.129L95.8159 179.704C95.8146 179.388 95.6777 179.088 95.4401 178.88L93.4 177.093C92.6026 176.395 93.1552 175.083 94.2119 175.166L96.6439 175.357C96.9689 175.382 97.2884 175.263 97.5166 175.03L99.4388 173.069C100.188 172.304 101.478 172.95 101.314 174.009L100.929 176.496C100.869 176.883 101.02 177.273 101.324 177.52Z" fill="#ffffff"/></g><g id="change4_1"><path d="M466.057 266.9L461.679 272.84C461.413 273.202 460.978 273.376 460.553 273.291L455.143 272.217C453.979 271.986 453.277 273.536 454.175 274.354L458.427 278.223C458.737 278.506 458.884 278.941 458.813 279.368L457.746 285.749C457.545 286.949 458.939 287.692 459.728 286.806L464.096 281.902C464.353 281.614 464.725 281.475 465.095 281.528L470.15 282.257C471.288 282.422 471.933 280.918 471.067 280.117L467.308 276.641C467.006 276.362 466.862 275.937 466.927 275.518L468.112 267.853C468.306 266.599 466.794 265.898 466.057 266.9Z" fill="#5daefe"/></g><g id="change3_5"><path d="M201.436 109.597C201.436 100.803 208.564 93.6746 217.358 93.6746H398.503C407.296 93.6746 414.425 100.803 414.425 109.597V463.796C414.425 472.589 407.296 479.718 398.503 479.718H217.358C208.564 479.718 201.436 472.589 201.436 463.796V109.597Z" fill="#ffffff"/></g><g id="change2_5"><path clip-rule="evenodd" d="M200.109 109.597C200.109 100.07 207.832 92.3477 217.359 92.3477H398.503C408.03 92.3477 415.753 100.07 415.753 109.597V463.795C415.753 473.322 408.03 481.045 398.503 481.045H217.359C207.832 481.045 200.109 473.322 200.109 463.795V109.597ZM217.359 95.0014C209.298 95.0014 202.763 101.536 202.763 109.597V463.795C202.763 471.856 209.298 478.391 217.359 478.391H398.503C406.564 478.391 413.099 471.856 413.099 463.795V109.597C413.099 101.536 406.564 95.0014 398.503 95.0014H217.359Z" fill="#032068" fill-rule="evenodd"/></g><g id="change1_2"><path d="M369.948 235.626C369.948 270.068 342.028 297.989 307.586 297.989C273.143 297.989 245.223 270.068 245.223 235.626C245.223 201.184 273.143 173.263 307.586 173.263C342.028 173.263 369.948 201.184 369.948 235.626Z" fill="#e7e8ff"/></g><g id="change2_6"><path d="M265.581 106.617L258.678 93.6738H357.185L349.07 107.2C346.672 111.196 342.353 113.642 337.692 113.642H277.288C272.388 113.642 267.887 110.941 265.581 106.617Z" fill="#032068"/></g><g id="change2_7"><path d="M411.813 101.661H202.689C209.612 94.7389 216.223 93.4521 218.664 93.6739H395.838C404.358 93.6739 410.038 98.9987 411.813 101.661Z" fill="#032068"/></g><g id="change2_8"><path d="M411.653 472.148H204.09C211.284 479.182 215.441 480.49 217.977 480.264H397.765C406.619 480.264 409.808 474.854 411.653 472.148Z" fill="#032068"/></g><g id="change4_2"><path d="M231.953 144.072C231.953 142.606 233.141 141.418 234.607 141.418H305.27C306.736 141.418 307.924 142.606 307.924 144.072V146.904C307.924 148.37 306.736 149.558 305.27 149.558H234.607C233.141 149.558 231.953 148.37 231.953 146.904V144.072Z" fill="#5daefe"/></g><g id="change2_9"><path d="M231.953 323.199C231.953 321.734 233.141 320.546 234.607 320.546H305.27C306.736 320.546 307.924 321.734 307.924 323.199V326.032C307.924 327.497 306.736 328.685 305.27 328.685H234.607C233.141 328.685 231.953 327.497 231.953 326.032V323.199Z" fill="#032068"/></g><g id="change2_10"><path d="M231.953 393.523C231.953 392.058 233.141 390.87 234.607 390.87H277.067C278.532 390.87 279.72 392.058 279.72 393.523V396.177C279.72 397.643 278.532 398.831 277.067 398.831H234.607C233.141 398.831 231.953 397.643 231.953 396.177V393.523Z" fill="#032068"/></g><g id="change1_3"><path d="M231.953 343.102C231.953 341.637 233.141 340.449 234.607 340.449H376.582C378.048 340.449 379.236 341.637 379.236 343.102V369.64C379.236 371.106 378.048 372.294 376.582 372.294H234.607C233.141 372.294 231.953 371.106 231.953 369.64V343.102Z" fill="#e7e8ff"/></g><g id="change1_4"><path d="M231.953 412.1C231.953 410.634 233.141 409.446 234.607 409.446H376.582C378.048 409.446 379.236 410.634 379.236 412.1V438.637C379.236 440.103 378.048 441.291 376.582 441.291H234.607C233.141 441.291 231.953 440.103 231.953 438.637V412.1Z" fill="#e7e8ff"/></g><g id="change2_11"><path clip-rule="evenodd" d="M399.472 112.644V123.497H396.818V112.644H399.472Z" fill="#032068" fill-rule="evenodd"/></g><g id="change2_12"><path clip-rule="evenodd" d="M392.689 114V123.497H390.035V114H392.689Z" fill="#032068" fill-rule="evenodd"/></g><g id="change2_13"><path clip-rule="evenodd" d="M385.906 116.713V123.496H383.252V116.713H385.906Z" fill="#032068" fill-rule="evenodd"/></g><g id="change2_14"><path clip-rule="evenodd" d="M379.122 119.427V123.497H376.469V119.427H379.122Z" fill="#032068" fill-rule="evenodd"/></g><g id="change3_6"><path d="M308.183 236.378C290.631 236.378 276.168 249.806 274.226 267.093C273.98 269.278 275.786 271.068 277.984 271.068H338.382C340.581 271.068 342.387 269.278 342.141 267.093C340.198 249.806 325.736 236.378 308.183 236.378Z" fill="#ffffff"/></g><g id="change3_7"><path d="M325.016 215.972C325.016 224.988 317.708 232.297 308.692 232.297C299.676 232.297 292.367 224.988 292.367 215.972C292.367 206.956 299.676 199.647 308.692 199.647C317.708 199.647 325.016 206.956 325.016 215.972Z" fill="#ffffff"/></g><g id="change5_1"><path d="M169.706 268.848L175.097 285.525C177.254 293.36 169.706 301.614 151.736 301.614C137.36 301.614 134.489 293.404 135.208 286.756L139.516 263.862C135.922 260.3 133.047 258.163 133.047 241.068C133.047 219.699 144.548 211.864 158.205 211.864C171.862 211.864 183.363 223.248 183.363 243.917C183.364 261.725 173.779 267.423 169.706 268.848Z" fill="#efcb96"/></g><g id="change2_15"><path d="M203.813 253.226C214.508 264.38 213.073 291.839 211.432 300.204C194.112 287.361 182.391 283.108 176.324 282.62C175.345 282.541 175.167 284.812 174.483 284.909L169.335 267.866C177.075 265.774 182 258.803 182.704 242.77C183.267 229.943 176.841 221.159 173.557 218.37C162.299 217.673 156.67 231.616 153.152 237.193C150.338 241.654 148.227 240.911 147.523 239.981C144.005 231.616 137.672 230.919 136.265 239.981C135.139 247.231 140.487 250.903 143.301 251.832L135.208 287.372C134.262 287.425 133.367 284.293 133.367 282.898C118.329 284.57 101.81 292.519 96.8786 295.818C94.7677 273.51 115.156 256.712 120.785 242.77C126.414 228.827 118.675 221.856 124.303 212.794C128.476 206.077 136.265 205.125 141.19 203.731C146.116 202.337 148.93 196.76 154.559 193.971C164.41 190.486 173.792 199.084 176.372 205.125C178.013 204.893 182.704 205.543 188.333 210.005C204.516 221.159 190.444 239.284 203.813 253.226Z" fill="#032068"/></g><g id="change2_16"><path d="M155.41 267.958C163.796 269.922 168.687 269.185 170.085 268.572L172.182 275.321C163.236 276.303 157.273 270.822 155.41 267.958Z" fill="#032068"/></g><g id="change4_3"><path d="M153.529 295.161C167.643 295.161 174.267 286.466 175.815 282.118C202.743 282.118 225.028 300.751 235.242 313.794C245.457 326.838 283.527 395.78 274.242 423.729C266.813 446.089 248.861 449.505 238.957 447.952L240.598 477.592C240.715 479.71 239.035 481.492 236.921 481.492H100.602C86.3642 482.423 55.2884 482.796 44.8886 476.833C31.8889 469.38 19.8177 431.183 44.8886 355.719C64.9454 295.348 112.054 281.497 133.101 282.118C134.03 286.466 139.415 295.161 153.529 295.161Z" fill="#5daefe"/></g><g id="change2_17"><path d="M85.9104 481.547C63.5246 454.173 39.8562 444.406 30.8203 442.943C30.8203 451.717 35.1925 468.387 43.0625 476.283C49.3585 482.6 74.2511 482.425 85.9104 481.547Z" fill="#032068"/></g><g id="change2_18"><path d="M259.05 444.698C273.741 439.083 276.248 418.962 275.665 409.604C262.373 415.921 244.476 437.387 237.189 447.33C238.355 448.792 244.36 450.313 259.05 444.698Z" fill="#032068"/></g><g id="change2_19"><path d="M151.673 380.874C145.174 383.669 96.8888 406.339 74.6035 417.208C77.3892 412.55 88.5318 405.097 91.3175 402.302C94.1031 399.507 104.317 366.899 104.317 371.557C104.317 376.216 98.7459 397.644 101.532 397.644C104.317 397.644 143.317 380.874 151.673 380.874Z" fill="#032068"/></g><g id="change2_20"><path d="M171.173 407.892C131.802 460.81 99.6745 479.629 88.5318 482.424H108.031C141.459 456.338 164.054 421.867 171.173 407.892Z" fill="#032068"/></g><g id="change2_21"><path d="M219.457 398.576C220.943 416.463 233.695 438.947 239.885 447.953V456.338C225.771 440.686 220.386 411.308 219.457 398.576Z" fill="#032068"/></g><g id="change2_22"><path d="M237.1 373.421C242.3 376.402 251.647 383.359 255.671 386.464L240.814 368.763C240.071 371.744 238.028 373.11 237.1 373.421Z" fill="#032068"/></g><g id="change3_8"><path d="M182.21 339.047L175.053 409.06C174.97 409.875 175.688 410.542 176.491 410.398L210.233 404.321C210.752 404.228 211.153 403.813 211.23 403.29L221.09 336.742C221.205 335.962 220.572 335.276 219.788 335.332L183.344 337.944C182.749 337.987 182.271 338.452 182.21 339.047Z" fill="#ffffff"/></g><g id="change2_23"><path clip-rule="evenodd" d="M219.7 334.104C221.267 333.992 222.534 335.364 222.303 336.923L212.443 403.472C212.289 404.517 211.486 405.347 210.449 405.534L176.707 411.61C175.1 411.899 173.665 410.564 173.832 408.935L180.989 338.921C181.11 337.731 182.066 336.801 183.256 336.716L219.7 334.104ZM219.875 336.561L183.43 339.173L176.273 409.186L210.015 403.109L219.875 336.561Z" fill="#032068" fill-rule="evenodd"/></g><g id="change5_2"><path d="M230.6 373.421L219.458 390.191C204.601 391.123 201.815 382.738 204.601 369.695C206.83 359.26 215.125 359.136 218.529 360.378L220.386 352.925C230.6 361.31 230.6 369.384 230.6 373.421Z" fill="#efcb96"/></g><g id="change5_3"><path d="M165.601 371.558C163.373 377.521 159.101 381.496 157.244 382.738L169.315 401.371C173.03 397.644 177.672 397.644 187.886 392.986C198.101 388.328 200.886 371.558 198.101 362.242C195.872 354.788 182.934 360.378 177.672 364.105L178.601 353.857C172.101 356.652 168.387 364.105 165.601 371.558Z" fill="#efcb96"/></g><g id="change3_9"><path d="M489.366 197.147C489.366 222.062 469.168 242.26 444.252 242.26C419.337 242.26 399.139 222.062 399.139 197.147C399.139 172.231 419.337 152.033 444.252 152.033C469.168 152.033 489.366 172.231 489.366 197.147Z" fill="#ffffff"/></g><g id="change2_24"><path clip-rule="evenodd" d="M444.252 153.142C419.949 153.142 400.248 172.844 400.248 197.147C400.248 221.45 419.949 241.151 444.252 241.151C468.555 241.151 488.256 221.45 488.256 197.147C488.256 172.844 468.555 153.142 444.252 153.142ZM398.029 197.147C398.029 171.619 418.724 150.924 444.252 150.924C469.78 150.924 490.475 171.619 490.475 197.147C490.475 222.675 469.78 243.37 444.252 243.37C418.724 243.37 398.029 222.675 398.029 197.147Z" fill="#032068" fill-rule="evenodd"/></g><g id="change2_25"><path clip-rule="evenodd" d="M444.786 169.219C436.184 169.219 429.211 176.307 429.211 185.051V195.892C429.211 197.178 430.254 198.221 431.54 198.221C432.826 198.221 433.869 197.178 433.869 195.892V184.756C433.869 178.627 438.757 173.658 444.786 173.658C450.815 173.658 455.703 178.627 455.703 184.756V195.311C455.703 196.597 456.746 197.64 458.032 197.64C459.318 197.64 460.361 196.597 460.361 195.311V185.051C460.361 176.307 453.388 169.219 444.786 169.219Z" fill="#032068" fill-rule="evenodd"/></g><g id="change4_4"><path d="M424.914 196.178C424.914 194.34 426.404 192.85 428.242 192.85H461.329C463.167 192.85 464.657 194.34 464.657 196.178V220.672C464.657 222.51 463.167 224 461.329 224H428.242C426.404 224 424.914 222.51 424.914 220.672V196.178Z" fill="#5daefe"/></g><g id="change3_10"><path clip-rule="evenodd" d="M447.319 209.714C448.24 208.973 448.829 207.836 448.829 206.562C448.829 204.328 447.018 202.517 444.785 202.517C442.551 202.517 440.74 204.328 440.74 206.562C440.74 207.95 441.44 209.175 442.505 209.903L441.603 213.693C441.469 214.258 441.897 214.8 442.477 214.8H447.392C447.972 214.8 448.4 214.258 448.266 213.693L447.319 209.714Z" fill="#ffffff" fill-rule="evenodd"/></g></svg>